<svg xmlns="http://www.w3.org/2000/svg" version="1.1" xmlns:xlink="http://www.w3.org/1999/xlink" xmlns:svgjs="http://svgjs.dev/svgjs" width="1500" height="1500" viewBox="0 0 1500 1500"><g transform="matrix(1,0,0,1,-0.323615160350073,-0.3236151603499593)"><svg viewBox="0 0 343 343" data-background-color="#ffffff" preserveAspectRatio="xMidYMid meet" height="1500" width="1500" xmlns="http://www.w3.org/2000/svg" xmlns:xlink="http://www.w3.org/1999/xlink"><g id="tight-bounds" transform="matrix(1,0,0,1,0.0740000000000407,0.07400000000001228)"><svg viewBox="0 0 342.85155851775386 342.85155851775386" height="342.85155851775386" width="342.85155851775386"><g><svg></svg></g><g><svg viewBox="0 0 342.85155851775386 342.85155851775386" height="342.85155851775386" width="342.85155851775386"><g><path d="M0 171.426c0-94.676 76.75-171.426 171.426-171.426 94.676 0 171.426 76.75 171.426 171.426 0 94.676-76.75 171.426-171.426 171.426-94.676 0-171.426-76.75-171.426-171.426zM171.426 330.349c87.771 0 158.924-71.153 158.923-158.923 0-87.771-71.153-158.924-158.923-158.924-87.771 0-158.924 71.153-158.924 158.924 0 87.771 71.153 158.924 158.924 158.923z" data-fill-palette-color="tertiary" fill="#000000" stroke="transparent"></path><ellipse rx="164.56874808852186" ry="164.56874808852186" cx="171.42577925887693" cy="171.42577925887693" fill="#000000" stroke="transparent" stroke-width="0" fill-opacity="1" data-fill-palette-color="tertiary"></ellipse></g><g transform="matrix(1,0,0,1,64.84655864529837,102.10921848388035)"><svg viewBox="0 0 213.1584412271571 138.63312154999315" height="138.63312154999315" width="213.1584412271571"><g><svg viewBox="0 0 213.1584412271571 138.63312154999315" height="138.63312154999315" width="213.1584412271571"><g><svg viewBox="0 0 213.1584412271571 138.63312154999315" height="138.63312154999315" width="213.1584412271571"><g id="textblocktransform"><svg viewBox="0 0 213.1584412271571 138.63312154999315" height="138.63312154999315" width="213.1584412271571" id="textblock"><g><svg viewBox="0 0 213.1584412271571 138.63312154999315" height="138.63312154999315" width="213.1584412271571"><g transform="matrix(1,0,0,1,0,0)"><svg width="213.1584412271571" viewBox="4.54 -33.79 51.95 33.79" height="138.63312154999315" data-palette-color="#ffffff"><path d="M24.76 0L4.54 0 4.54-33.79 24.24-33.79 24.24-29.83 9.23-29.83 9.23-19.73 21.9-19.73 21.9-15.67 9.23-15.67 9.23-3.96 24.76-3.96 24.76 0ZM40.62 0L31.81 0 31.81-33.79 40.38-33.79Q48.17-33.79 52.33-29.47 56.49-25.15 56.49-17.02L56.49-17.02Q56.49-8.86 52.35-4.43 48.22 0 40.62 0L40.62 0ZM36.5-29.96L36.5-3.83 40.04-3.83Q45.75-3.83 48.68-7.24 51.61-10.64 51.61-17.02L51.61-17.02Q51.61-23.36 48.68-26.66 45.75-29.96 40.04-29.96L40.04-29.96 36.5-29.96Z" opacity="1" transform="matrix(1,0,0,1,0,0)" fill="#ffffff" class="wordmark-text-0" data-fill-palette-color="quaternary" id="text-0"></path></svg></g></svg></g></svg></g></svg></g><g></g></svg></g></svg></g></svg></g><defs></defs></svg><rect width="342.85155851775386" height="342.85155851775386" fill="none" stroke="none" visibility="hidden"></rect></g></svg></g></svg>