<svg xmlns="http://www.w3.org/2000/svg" version="1.1" xmlns:xlink="http://www.w3.org/1999/xlink" xmlns:svgjs="http://svgjs.dev/svgjs" width="1500" height="1500" viewBox="0 0 1500 1500"><rect width="1500" height="1500" fill="#ffffff"></rect><g transform="matrix(0.6666666666666666,0,0,0.6666666666666666,249.39393939393938,639.1646459783605)"><svg viewBox="0 0 396 87" data-background-color="#333b6a" preserveAspectRatio="xMidYMid meet" height="329" width="1500" xmlns="http://www.w3.org/2000/svg" xmlns:xlink="http://www.w3.org/1999/xlink"><g id="tight-bounds" transform="matrix(1,0,0,1,0.2400000000000091,0.4635674766686009)"><svg viewBox="0 0 395.52 86.0728650466628" height="86.0728650466628" width="395.52"><g><svg viewBox="0 0 557.7106893252046 121.36872192902918" height="86.0728650466628" width="395.52"><g><rect width="6.406284017713863" height="121.36872192902918" x="139.01402829776862" y="0" fill="#000000" opacity="1" stroke-width="0" stroke="transparent" fill-opacity="1" class="rect-yte-0" data-fill-palette-color="primary" rx="1%" id="yte-0" data-palette-color="#b7feae"></rect></g><g transform="matrix(1,0,0,1,162.19068932520463,0.3019122436045407)"><svg viewBox="0 0 395.52 120.7648974418201" height="120.7648974418201" width="395.52"><g id="textblocktransform"><svg viewBox="0 0 395.52 120.7648974418201" height="120.7648974418201" width="395.52" id="textblock"><g><svg viewBox="0 0 395.52 71.03804287484604" height="71.03804287484604" width="395.52"><g transform="matrix(1,0,0,1,0,0)"><svg width="395.52" viewBox="0.504288197223 -37.79 223.445711802777 40.129999999999995" height="71.03804287484604" data-palette-color="#b7feae"><path d="M18.6-36.43L18.6-36.43Q18.95-36.04 19.14-35.64L19.14-35.64Q19.43-35.45 19.68-35.06L19.68-35.06Q19.82-34.47 20.12-34.11 20.41-33.74 20.65-33.25L20.65-33.25Q20.7-32.91 20.73-32.5 20.75-32.08 20.85-31.69L20.85-31.69Q20.9-31.54 20.92-31.37 20.95-31.2 20.9-31.05L20.9-31.05Q20.95-30.81 20.97-30.4 21-29.98 20.9-29.74L20.9-29.74Q21.09-29.2 21.04-28.66 21-28.13 20.95-27.59L20.95-27.59Q20.9-27.25 20.85-26.93 20.8-26.61 20.75-26.27L20.75-26.27Q20.7-26.12 20.65-25.93 20.61-25.73 20.61-25.59L20.61-25.59Q20.56-25.34 20.63-25.1 20.7-24.85 20.61-24.61L20.61-24.61Q20.65-23.44 20.83-22.85 21-22.27 20.95-21.58L20.95-21.58Q20.8-20.8 20.61-20.04 20.41-19.29 20.02-18.75L20.02-18.75Q19.63-18.55 19.24-18.36 18.85-18.16 18.55-17.87L18.55-17.87Q18.12-17.82 17.6-17.63 17.09-17.43 16.6-17.48L16.6-17.48Q16.41-17.53 16.11-17.48 15.82-17.43 15.67-17.53L15.67-17.53Q15.23-17.87 14.89-17.77 14.55-17.68 14.36-17.92L14.36-17.92Q13.87-17.92 13.31-17.97 12.74-18.02 12.06-18.07L12.06-18.07Q11.52-17.87 10.96-17.94 10.4-18.02 10.01-18.21L10.01-18.21Q9.72-18.21 9.38-18.29 9.03-18.36 8.74-18.41L8.74-18.41Q8.59-18.31 8.33-18.26 8.06-18.21 7.96-18.26L7.96-18.26Q7.67-18.02 7.37-17.7 7.08-17.38 6.98-16.89L6.98-16.89Q7.08-16.31 7.13-15.75 7.18-15.19 7.18-14.6L7.18-14.6Q7.18-14.21 7.4-13.87 7.62-13.53 7.67-13.04L7.67-13.04Q7.71-12.65 7.74-12.38 7.76-12.11 7.91-11.82L7.91-11.82Q7.81-11.67 7.89-11.45 7.96-11.23 7.86-11.13L7.86-11.13Q8.06-10.79 8.08-10.33 8.11-9.86 8.4-9.52L8.4-9.52Q8.4-8.98 8.52-8.62 8.64-8.25 8.84-7.91L8.84-7.91Q8.98-7.67 9.25-7.59 9.52-7.52 9.72-7.37L9.72-7.37Q10.06-6.54 10.94-6.2L10.94-6.2Q11.43-5.81 11.57-5.62L11.57-5.62Q11.82-5.62 11.96-5.57 12.11-5.52 12.3-5.47L12.3-5.47Q12.45-5.47 12.6-5.37 12.74-5.27 12.89-5.27L12.89-5.27Q12.99-5.32 13.18-5.35 13.38-5.37 13.57-5.42L13.57-5.42Q14.06-5.62 14.45-5.81L14.45-5.81Q14.7-5.91 14.87-6.08 15.04-6.25 15.19-6.35L15.19-6.35Q15.53-6.54 15.65-6.67 15.77-6.79 15.92-6.79L15.92-6.79Q16.55-8.01 17.09-8.76 17.63-9.52 18.16-10.3L18.16-10.3Q18.41-10.64 18.41-10.84 18.41-11.04 18.55-11.13L18.55-11.13Q18.51-11.52 18.7-11.74 18.9-11.96 18.85-12.26L18.85-12.26Q18.99-12.6 19.24-12.77 19.48-12.94 19.63-13.18L19.63-13.18Q20.07-13.57 20.21-13.62 20.36-13.67 20.51-13.87L20.51-13.87Q21.04-14.06 21.7-14.09 22.36-14.11 22.9-13.82L22.9-13.82Q23.14-13.57 23.24-13.28 23.34-12.99 23.68-12.89L23.68-12.89Q23.73-12.65 23.9-12.55 24.07-12.45 24.22-12.35L24.22-12.35Q24.27-11.91 24.44-11.47 24.61-11.04 24.61-10.55L24.61-10.55Q24.61-9.42 24.27-8.76 23.93-8.11 23.49-7.52L23.49-7.52Q23.29-7.18 22.97-7.13 22.66-7.08 22.56-6.79L22.56-6.79Q22.07-6.79 21.75-6.79 21.44-6.79 21.04-6.64L21.04-6.64Q20.8-6.25 20.53-5.96 20.26-5.66 20.07-5.27L20.07-5.27Q19.68-4.93 19.53-4.69 19.38-4.44 19.14-4.2L19.14-4.2Q18.6-3.56 18.41-3.1 18.21-2.64 17.82-2.34L17.82-2.34Q17.58-2.15 17.33-2.03 17.09-1.9 16.99-1.56L16.99-1.56Q16.36-1.46 15.84-1.25 15.33-1.03 14.79-0.88L14.79-0.88Q14.65-0.78 14.48-0.66 14.31-0.54 14.21-0.39L14.21-0.39Q13.96-0.2 13.62 0.05L13.62 0.05Q13.53 0.1 13.4 0.2 13.28 0.29 13.18 0.39L13.18 0.39Q12.89 0.39 12.67 0.51 12.45 0.63 12.26 0.68L12.26 0.68Q11.67 0.63 11.52 0.56 11.38 0.49 11.23 0.44L11.23 0.44Q11.04 0.44 10.69 0.44 10.35 0.44 10.21 0.24L10.21 0.24Q9.47-0.15 8.94-0.49 8.4-0.83 7.96-1.37L7.96-1.37Q7.71-1.37 7.59-1.56 7.47-1.76 7.32-1.95L7.32-1.95Q6.93-2.15 6.67-2.34 6.4-2.54 6.49-2.78L6.49-2.78Q6.01-3.17 5.83-3.59 5.66-4 5.57-4.49L5.57-4.49Q4.93-4.88 4.88-5.15 4.83-5.42 4.74-5.66L4.74-5.66Q4.64-6.25 4.42-6.91 4.2-7.57 4.05-8.25L4.05-8.25Q3.86-8.74 3.81-9.2 3.76-9.67 3.76-10.11L3.76-10.11Q3.71-10.5 3.56-10.77 3.42-11.04 3.32-11.28L3.32-11.28Q3.13-11.82 3.05-12.21 2.98-12.6 2.78-12.84L2.78-12.84Q2.73-13.13 2.66-13.26 2.59-13.38 2.69-13.57L2.69-13.57Q2.49-15.09 2.17-16.31 1.86-17.53 1.66-18.95L1.66-18.95Q1.66-19.53 1.71-19.75 1.76-19.97 1.81-20.12L1.81-20.12Q1.9-20.31 1.88-20.61 1.86-20.9 1.95-21.19L1.95-21.19Q1.86-21.44 1.86-21.73 1.86-22.02 1.76-22.27L1.76-22.27Q1.71-22.46 1.61-22.61 1.51-22.75 1.46-22.95L1.46-22.95Q1.32-23.49 1.29-23.61 1.27-23.73 1.37-23.78L1.37-23.78Q1.12-23.97 1.12-24.17 1.12-24.37 1.07-24.61L1.07-24.61Q0.88-24.9 0.93-24.98 0.98-25.05 0.93-25.15L0.93-25.15Q0.83-25.63 0.95-25.95 1.07-26.27 1.12-26.51L1.12-26.51 1.07-27.1Q1.07-27.88 1.27-28.22 1.46-28.56 1.37-28.96L1.37-28.96Q1.66-29.64 1.9-30.2 2.15-30.76 2.59-31.15L2.59-31.15Q2.78-31.49 2.91-31.84 3.03-32.18 3.42-32.37L3.42-32.37Q3.52-32.67 3.69-32.81 3.86-32.96 3.91-33.25L3.91-33.25Q4.39-33.64 4.59-33.81 4.79-33.98 4.98-34.23L4.98-34.23Q5.42-34.67 5.42-34.67L5.42-34.67Q5.66-35.01 5.71-35.01 5.76-35.01 5.81-35.06L5.81-35.06Q6.1-35.4 6.18-35.5 6.25-35.6 6.35-35.64L6.35-35.64Q6.88-35.99 7.25-36.13 7.62-36.28 7.91-36.52L7.91-36.52Q8.3-36.57 8.4-36.77L8.4-36.77Q9.28-37.06 9.91-37.28 10.55-37.5 11.57-37.6L11.57-37.6Q12.16-37.79 12.33-37.79 12.5-37.79 12.6-37.7L12.6-37.7Q13.09-37.79 13.48-37.6L13.48-37.6Q13.77-37.5 14.06-37.5 14.36-37.5 14.65-37.5L14.65-37.5Q15.04-37.5 15.41-37.43 15.77-37.35 16.11-37.26L16.11-37.26Q16.46-37.16 16.75-37.04 17.04-36.91 17.33-36.77 17.63-36.62 17.92-36.52 18.21-36.43 18.6-36.43ZM16.16-30.86L16.26-31.01Q16.11-31.3 16.09-31.62 16.06-31.93 15.97-32.23L15.97-32.23Q15.87-32.47 15.65-32.69 15.43-32.91 15.48-33.2L15.48-33.2Q15.04-33.69 14.5-34.13 13.96-34.57 13.23-34.72L13.23-34.72Q12.84-35.06 12.5-34.89 12.16-34.72 11.77-34.47L11.77-34.47Q10.79-33.84 10.21-33.33 9.62-32.81 9.42-32.13L9.42-32.13Q9.23-32.03 9.2-31.84 9.18-31.64 8.98-31.59L8.98-31.59Q8.74-31.05 8.79-30.47 8.84-29.88 8.79-29.3L8.79-29.3Q8.74-28.96 8.52-28.56 8.3-28.17 8.2-27.93L8.2-27.93Q8.15-27.69 8.08-27.56 8.01-27.44 7.96-27.34L7.96-27.34Q7.86-27.2 7.84-27.05 7.81-26.9 7.76-26.81L7.76-26.81Q7.52-26.46 7.54-26.42 7.57-26.37 7.52-26.27L7.52-26.27Q7.13-25.44 7.2-24.95 7.28-24.46 7.18-23.93L7.18-23.93Q7.47-23.68 7.3-23.27 7.13-22.85 7.18-22.71L7.18-22.71Q7.32-22.27 7.47-21.7 7.62-21.14 8.06-21.09L8.06-21.09Q8.45-21.24 8.96-21.19 9.47-21.14 10.01-21.14L10.01-21.14Q10.69-21.04 11.33-21.07 11.96-21.09 12.26-21.48L12.26-21.48Q12.7-21.63 13.01-21.73 13.33-21.83 13.67-21.92L13.67-21.92Q13.87-22.17 14.18-22.22 14.5-22.27 14.75-22.31L14.75-22.31Q15.04-22.46 15.26-22.66 15.48-22.85 15.72-23.1L15.72-23.1Q15.77-23.73 16.02-24.32L16.02-24.32Q15.92-24.51 15.89-24.73 15.87-24.95 15.82-25.15L15.82-25.15Q15.92-25.39 16.06-25.49 16.21-25.59 16.26-25.83L16.26-25.83Q16.46-26.37 16.38-26.76 16.31-27.15 16.41-27.54L16.41-27.54Q16.11-28.08 16.31-28.66 16.5-29.25 16.26-29.69L16.26-29.69Q16.36-29.93 16.33-30.32 16.31-30.71 16.16-30.86L16.16-30.86ZM13.77-30.76L13.67-30.91Q12.99-31.2 12.79-31.79L12.79-31.79Q12.7-32.67 13.09-33.01L13.09-33.01Q13.96-32.86 14.26-32.47L14.26-32.47Q15.09-31.49 14.55-30.86L14.55-30.86Q14.4-30.76 14.18-30.71 13.96-30.66 13.77-30.76L13.77-30.76ZM10.5-14.94L10.5-14.94Q10.06-13.96 9.08-13.67L9.08-13.67Q8.54-13.92 8.47-14.23 8.4-14.55 8.3-14.79L8.3-14.79Q8.4-15.53 8.47-15.92 8.54-16.31 8.79-16.46L8.79-16.46Q8.98-16.8 9.25-16.85 9.52-16.89 9.77-16.8L9.77-16.8Q10.01-16.55 10.25-16.31 10.5-16.06 10.5-15.67L10.5-15.67Q10.55-15.43 10.47-15.28 10.4-15.14 10.5-14.94ZM9.77-11.28L9.77-11.28Q8.74-11.28 8.89-12.5L8.89-12.5Q9.18-12.74 9.47-12.65 9.77-12.55 9.94-12.3 10.11-12.06 10.11-11.74 10.11-11.43 9.77-11.28ZM2-7.37L2-7.37Q2.78-6.64 2.54-5.42L2.54-5.42Q2.34-5.42 2.25-5.32 2.15-5.22 2.05-5.13L2.05-5.13Q1.37-5.08 1.15-5.25 0.93-5.42 0.73-5.52L0.73-5.52Q0.49-5.81 0.59-6.25L0.59-6.25Q0.54-6.54 0.51-6.69 0.49-6.84 0.54-6.98L0.54-6.98Q0.63-7.47 1.17-7.64 1.71-7.81 2-7.37ZM23.39-4.74L23.39-4.74Q23.49-4.35 23.34-4.17 23.19-4 23.19-3.71L23.19-3.71Q22.95-3.52 22.85-3.2 22.75-2.88 22.41-2.78L22.41-2.78Q22.22-2.39 21.83-2.56 21.44-2.73 21.29-2.93L21.29-2.93Q21.19-3.37 21.09-3.39 21-3.42 21-3.56L21-3.56Q21.14-4 21.24-4.2L21.24-4.2Q21.29-4.59 21.36-4.64 21.44-4.69 21.53-4.79L21.53-4.79Q21.63-4.98 21.63-5.1 21.63-5.22 21.73-5.32L21.73-5.32Q21.97-5.42 22.19-5.47 22.41-5.52 22.56-5.62L22.56-5.62Q22.95-5.81 23.07-5.4 23.19-4.98 23.39-4.74ZM20.46-0.68L20.46-0.68Q20.61-0.59 20.7-0.42 20.8-0.24 20.65-0.05L20.65-0.05Q20.31 0.2 19.87 0.17 19.43 0.15 19.24-0.2L19.24-0.2Q18.99-0.39 19.04-0.68 19.09-0.98 19.26-1.17 19.43-1.37 19.68-1.46 19.92-1.56 20.21-1.42L20.21-1.42Q20.31-1.27 20.39-1.12 20.46-0.98 20.46-0.68ZM31.05 0.2L31.05 0.1Q30.95 0.1 30.81 0 30.66-0.1 30.42-0.1L30.42-0.1Q29.88-0.54 29.44-1 29-1.46 28.46-1.86L28.46-1.86Q28.32-2.2 28.15-2.49 27.98-2.78 27.78-3.17L27.78-3.17Q27.59-3.52 27.41-3.76 27.24-4 27.34-4.2L27.34-4.2Q27.19-4.39 27.07-4.59 26.95-4.79 26.85-5.03L26.85-5.03Q26.61-5.27 26.56-5.64 26.51-6.01 26.36-6.3L26.36-6.3Q26.22-6.54 26.07-6.79 25.93-7.03 25.88-7.37L25.88-7.37Q25.97-8.15 25.78-8.5 25.58-8.84 25.68-9.23L25.68-9.23Q25.49-9.67 25.53-9.72 25.58-9.77 25.63-9.86L25.63-9.86Q25.63-10.25 25.68-10.33 25.73-10.4 25.73-10.5L25.73-10.5Q25.73-10.74 25.71-11.04 25.68-11.33 25.68-11.62L25.68-11.62Q25.73-12.01 25.73-12.35 25.73-12.7 26.07-12.94L26.07-12.94Q26.32-13.57 26.56-14.36L26.56-14.36Q26.76-14.84 27.05-15.14L27.05-15.14Q27.44-15.43 27.61-15.89 27.78-16.36 28.12-16.6L28.12-16.6Q28.42-16.8 28.51-16.94 28.61-17.09 28.85-17.14L28.85-17.14Q28.95-17.53 29.25-17.53L29.25-17.53Q29.49-18.07 29.93-18.21L29.93-18.21Q30.37-18.65 30.64-19.19 30.91-19.73 31.3-20.26L31.3-20.26Q31.88-21.09 32.42-21.44 32.96-21.78 33.3-22.36L33.3-22.36Q33.69-22.61 34.1-22.71 34.52-22.8 34.81-23.1L34.81-23.1Q35.06-23.14 35.35-23.29 35.64-23.44 36.13-23.44L36.13-23.44Q36.57-23.44 36.67-23.29L36.67-23.29Q37.06-23.19 37.38-23.1 37.69-23 37.94-22.75L37.94-22.75 38.57-22.61Q38.86-22.51 39.11-22.34 39.35-22.17 39.6-21.97L39.6-21.97Q39.69-21.68 39.87-21.61 40.04-21.53 40.23-21.39L40.23-21.39Q40.62-21.14 40.79-20.68 40.96-20.21 41.5-20.12L41.5-20.12Q41.75-19.92 42.04-19.65 42.33-19.38 42.72-19.48L42.72-19.48Q42.62-20.12 42.43-20.63 42.23-21.14 42.19-21.68L42.19-21.68Q41.84-22.27 41.99-22.78 42.14-23.29 42.04-23.73L42.04-23.73Q42.14-24.02 42.06-24.29 41.99-24.56 42.04-24.95L42.04-24.95Q42.04-25.68 41.84-26.29 41.65-26.9 41.65-27.39L41.65-27.39Q41.65-27.69 41.7-28 41.75-28.32 41.4-28.32L41.4-28.32Q41.26-29.15 41.01-29.42 40.77-29.69 40.87-29.98L40.87-29.98Q40.77-30.22 40.79-30.42 40.82-30.62 40.72-30.76L40.72-30.76Q40.62-31.1 40.38-31.32 40.13-31.54 40.18-31.88L40.18-31.88Q39.79-32.37 39.79-32.96L39.79-32.96Q39.74-33.45 40.01-33.89 40.28-34.33 40.43-34.81L40.43-34.81Q40.77-35.25 40.84-35.42 40.92-35.6 41.16-35.69L41.16-35.69Q41.7-36.04 42.11-36.38 42.53-36.72 43.11-36.91L43.11-36.91Q43.85-36.91 44.26-36.91 44.68-36.91 45.09-36.84 45.51-36.77 45.85-36.62 46.19-36.47 46.38-36.18L46.38-36.18Q47.17-36.08 47.26-35.4L47.26-35.4Q47.6-34.86 47.68-34.72 47.75-34.57 47.7-34.42L47.7-34.42Q47.8-33.74 47.73-33.18 47.65-32.62 47.56-32.23L47.56-32.23Q47.65-31.84 47.43-31.57 47.21-31.3 47.12-30.86L47.12-30.86Q47.12-30.42 47.07-30.32 47.02-30.22 46.97-30.08L46.97-30.08Q46.92-29.93 46.95-29.76 46.97-29.59 46.92-29.49L46.92-29.49Q46.87-28.61 46.73-28.17L46.73-28.17Q46.82-27.93 46.77-27.66 46.73-27.39 46.77-27.15L46.77-27.15Q47.02-26.61 47.07-26 47.12-25.39 47.12-24.76L47.12-24.76Q47.12-24.56 47.09-24.44 47.07-24.32 47.07-24.12L47.07-24.12Q47.17-23.39 47.19-22.8 47.21-22.22 47.36-21.83L47.36-21.83Q47.26-21.44 47.46-21.19 47.65-20.95 47.6-20.51L47.6-20.51Q47.6-19.97 47.58-19.87 47.56-19.78 47.56-19.53L47.56-19.53Q47.51-19.34 47.53-19.17 47.56-18.99 47.56-18.8L47.56-18.8Q47.46-18.26 47.51-18.09 47.56-17.92 47.51-17.77L47.51-17.77Q47.46-17.24 47.31-16.82 47.17-16.41 47.21-16.02L47.21-16.02Q47.26-15.67 47.48-15.53 47.7-15.38 47.85-15.14L47.85-15.14Q48.09-14.6 48.07-14.04 48.04-13.48 47.95-12.94L47.95-12.94Q48.04-12.55 48.04-12.38 48.04-12.21 48.14-12.11L48.14-12.11Q48.09-11.77 48.04-11.3 48-10.84 48.04-10.35L48.04-10.35Q48.09-9.96 48.19-9.67 48.29-9.38 48.29-8.89L48.29-8.89Q48.29-8.35 48.29-7.89 48.29-7.42 48.19-6.93L48.19-6.93Q48.29-6.69 48.29-6.35 48.29-6.01 48.39-5.71L48.39-5.71Q48.34-5.52 48.34-5.3 48.34-5.08 48.24-4.93L48.24-4.93Q48.39-4.69 48.31-4.37 48.24-4.05 48.39-3.81L48.39-3.81Q48.48-3.61 48.78-3.61 49.07-3.61 49.36-3.47L49.36-3.47Q49.56-3.27 49.85-3.22 50.14-3.17 50.24-2.83L50.24-2.83Q50.29-2.64 50.27-2.34 50.24-2.05 50.24-1.76L50.24-1.76Q50.19-1.42 50.19-1.05 50.19-0.68 49.95-0.54L49.95-0.54Q49.7-0.1 49.41 0.22 49.12 0.54 48.68 0.78L48.68 0.78Q48.39 0.88 48.22 1 48.04 1.12 47.8 1.22L47.8 1.22Q47.6 1.27 47.29 1.32 46.97 1.37 46.82 1.27L46.82 1.27Q46.58 1.12 46.43 0.83 46.29 0.54 45.94 0.44L45.94 0.44Q45.7 0.34 45.41 0.37 45.11 0.39 44.72 0.34L44.72 0.34Q44.53 0.15 44.38-0.02 44.24-0.2 44.19-0.44L44.19-0.44Q43.99-0.98 43.94-1.49 43.89-2 43.75-2.39L43.75-2.39Q43.6-3.42 43.67-4.1 43.75-4.79 43.36-5.27L43.36-5.27Q43.11-5.08 43.02-4.83 42.92-4.59 42.77-4.35L42.77-4.35Q42.33-3.91 42.23-3.71 42.14-3.52 41.89-3.37L41.89-3.37Q41.6-2.98 41.4-2.66 41.21-2.34 40.96-2.1L40.96-2.1Q40.87-2 40.7-1.95 40.52-1.9 40.43-1.81L40.43-1.81Q40.18-1.71 40.04-1.56 39.89-1.42 39.69-1.37L39.69-1.37Q39.26-0.93 38.77-0.56 38.28-0.2 37.74 0.2L37.74 0.2Q37.5 0.24 37.25 0.29 37.01 0.34 36.77 0.34 36.52 0.34 36.25 0.39 35.98 0.44 35.84 0.63L35.84 0.63Q35.45 0.54 35.2 0.78L35.2 0.78Q34.96 0.83 34.81 0.85 34.67 0.88 34.57 0.98L34.57 0.98Q33.44 1.46 32.79 1.1 32.13 0.73 31.59 0.34L31.59 0.34Q31.39 0.44 31.32 0.32 31.25 0.2 31.05 0.2L31.05 0.2ZM39.99-15.53L39.99-15.53Q39.94-15.92 39.74-16.11L39.74-16.11Q39.06-16.65 38.55-16.6 38.03-16.55 37.55-16.46L37.55-16.46Q37.16-16.21 36.69-15.97 36.23-15.72 35.64-15.72L35.64-15.72Q35.15-15.48 34.86-15.43 34.57-15.38 34.32-15.28L34.32-15.28Q33.79-15.09 33.64-15.11 33.49-15.14 33.3-15.14L33.3-15.14Q32.76-15.09 32.49-14.89 32.22-14.7 31.78-14.65L31.78-14.65Q31.54-14.36 31.27-14.09 31-13.82 31-13.38L31-13.38Q30.91-13.13 30.83-12.92 30.76-12.7 30.56-12.5L30.56-12.5Q30.47-12.11 30.44-11.77 30.42-11.43 30.22-11.13L30.22-11.13Q30.32-10.74 30.27-10.33 30.22-9.91 30.27-9.57L30.27-9.57Q30.32-9.28 30.32-9.03 30.32-8.79 30.42-8.54L30.42-8.54Q30.42-8.45 30.52-8.3 30.61-8.15 30.66-8.01L30.66-8.01Q30.81-7.47 30.86-7.45 30.91-7.42 30.95-7.37L30.95-7.37Q31.25-6.74 31.39-6.64 31.54-6.54 31.54-6.4L31.54-6.4Q32.22-6.15 32.81-5.86 33.4-5.57 33.93-5.18L33.93-5.18Q33.98-4.88 34.23-4.76 34.47-4.64 34.57-4.39L34.57-4.39Q35.1-4.2 35.18-4.15 35.25-4.1 35.35-4.05L35.35-4.05Q36.18-4.1 36.98-4.3 37.79-4.49 38.52-4.59L38.52-4.59Q38.67-4.69 38.86-4.81 39.06-4.93 39.21-4.98L39.21-4.98Q39.21-5.08 39.38-5.18 39.55-5.27 39.65-5.37L39.65-5.37Q39.89-5.91 40.35-6.3 40.82-6.69 41.01-7.37L41.01-7.37Q40.92-7.86 41.01-8.37 41.11-8.89 41.21-9.42L41.21-9.42Q41.35-10.06 41.33-10.23 41.31-10.4 41.31-10.55L41.31-10.55Q41.31-11.04 41.33-11.52 41.35-12.01 41.26-12.5L41.26-12.5Q41.21-12.84 41.14-13.26 41.06-13.67 41.06-13.96L41.06-13.96Q40.96-14.31 40.72-14.53 40.48-14.75 40.48-15.14L40.48-15.14Q40.09-15.43 39.99-15.53ZM35.4-26.07L35.4-26.07Q35.1-26.17 34.86-26.32 34.62-26.46 34.57-26.86L34.57-26.86Q34.76-27.15 34.91-27.29L34.91-27.29Q35.15-27.39 35.32-27.25 35.5-27.1 35.57-26.88 35.64-26.66 35.62-26.42 35.59-26.17 35.4-26.07ZM32.32-26.71L32.32-26.71Q32.42-26.81 32.57-26.73 32.71-26.66 32.86-26.71L32.86-26.71Q33.1-26.51 33.2-26.12 33.3-25.73 33.23-25.37 33.15-25 32.91-24.78 32.66-24.56 32.18-24.71L32.18-24.71Q31.88-24.95 31.78-25.44 31.69-25.93 31.98-26.27L31.98-26.27Q31.88-26.42 32.05-26.51 32.22-26.61 32.32-26.71ZM36.33-14.01L36.42-14.5Q36.86-14.79 36.98-14.79 37.11-14.79 37.2-14.84L37.2-14.84Q37.45-14.99 37.62-14.97 37.79-14.94 37.94-14.99L37.94-14.99Q38.13-14.99 38.5-15.09 38.86-15.19 39.11-15.14L39.11-15.14Q39.35-15.04 39.5-14.84 39.65-14.65 39.79-14.4L39.79-14.4Q39.69-14.16 39.72-13.96 39.74-13.77 39.69-13.57L39.69-13.57Q39.4-13.04 39.35-12.99L39.35-12.99Q39.21-12.79 38.77-12.72 38.33-12.65 38.08-12.74L38.08-12.74Q37.89-12.79 37.77-12.89 37.64-12.99 37.55-13.04L37.55-13.04Q37.2-12.94 36.98-13.09 36.77-13.23 36.57-13.38L36.57-13.38Q36.42-13.72 36.42-13.82 36.42-13.92 36.33-14.01L36.33-14.01ZM32.08-8.79L32.08-8.79Q32.37-8.35 32.49-8.15 32.61-7.96 32.52-7.57L32.52-7.57Q32.42-7.47 32.3-7.4 32.18-7.32 31.98-7.23L31.98-7.23Q31.49-7.86 31.37-8.18 31.25-8.5 31.44-8.84L31.44-8.84Q31.64-8.84 31.81-8.89 31.98-8.94 32.08-8.79ZM42.77-1.66L42.77-1.66Q42.87-1.12 42.92-1.07 42.97-1.03 42.97-0.93L42.97-0.93Q43.02-0.49 42.72-0.15 42.43 0.2 41.99 0.34 41.55 0.49 41.14 0.39 40.72 0.29 40.57-0.15L40.57-0.15Q40.96-1.42 42.19-1.61L42.19-1.61Q42.28-1.81 42.45-1.71 42.62-1.61 42.77-1.66ZM39.99 0.98L39.99 0.98Q39.74 1.22 39.74 1.46L39.74 1.46Q39.21 1.56 39.21 1.51L39.21 1.51Q38.82 1.07 38.86 1 38.91 0.93 38.91 0.88L38.91 0.88Q38.91 0.54 39.04 0.44 39.16 0.34 39.26 0.24L39.26 0.24Q39.99 0.44 39.99 0.98ZM64.3-27.2L64.35-27.54Q64.5-27.78 64.69-28.08 64.89-28.37 65.13-28.61L65.13-28.61Q65.33-28.71 65.64-28.78 65.96-28.86 66.28-28.86 66.6-28.86 66.79-28.71 66.99-28.56 66.99-28.22L66.99-28.22Q66.89-27.73 66.65-27.42 66.4-27.1 66.11-26.86L66.11-26.86Q65.72-26.81 65.52-26.56 65.33-26.32 64.94-26.32L64.94-26.32Q64.25-26.56 64.3-27.2L64.3-27.2ZM68.11-26.07L68.11-26.07Q67.87-26.27 67.89-26.54 67.91-26.81 68.06-26.98 68.21-27.15 68.48-27.2 68.75-27.25 68.99-27.05L68.99-27.05Q69.23-26.32 68.87-26.15 68.5-25.98 68.11-26.07ZM66.11-7.03L66.11-7.03Q66.4-7.13 66.5-7.37 66.6-7.62 66.74-7.86L66.74-7.86Q67.08-8.69 67.04-9.28 66.99-9.86 67.23-10.3L67.23-10.3Q67.33-10.79 67.38-10.84L67.38-10.84Q67.23-11.38 67.23-11.87 67.23-12.35 67.28-12.89L67.28-12.89Q67.23-13.04 67.21-13.21 67.18-13.38 67.28-13.48L67.28-13.48Q67.08-13.87 67.06-14.43 67.04-14.99 67.23-15.28L67.23-15.28Q67.13-15.43 67.18-15.63 67.23-15.82 67.18-16.02L67.18-16.02Q67.18-16.16 67.13-16.31 67.08-16.46 67.08-16.6L67.08-16.6Q67.08-16.85 67.16-17.11 67.23-17.38 66.99-17.68L66.99-17.68Q66.94-18.02 66.94-18.29 66.94-18.55 66.79-18.75L66.79-18.75Q66.84-19.43 66.74-19.58L66.74-19.58Q66.21-20.12 66.11-20.46 66.01-20.8 65.86-21.04L65.86-21.04Q65.72-21.63 65.67-21.9 65.62-22.17 65.47-22.31L65.47-22.31Q65.62-22.66 65.57-23.02 65.52-23.39 65.77-23.68L65.77-23.68Q65.86-23.78 66.04-23.88 66.21-23.97 66.35-24.12L66.35-24.12Q66.65-24.32 66.82-24.44 66.99-24.56 67.33-24.66L67.33-24.66Q67.52-24.51 67.74-24.61 67.96-24.71 68.21-24.66L68.21-24.66Q68.45-24.66 68.65-24.56 68.84-24.46 69.14-24.41L69.14-24.41Q69.38-24.37 69.58-24.27 69.77-24.17 70.11-24.17L70.11-24.17Q70.31-23.97 70.5-23.97 70.7-23.97 70.94-23.83L70.94-23.83Q71.28-23.58 71.36-23.24 71.43-22.9 71.53-22.41L71.53-22.41Q71.77-21.83 71.75-21.7 71.72-21.58 71.82-21.48L71.82-21.48Q71.82-21.24 71.8-21.04 71.77-20.85 71.87-20.61L71.87-20.61Q71.77-20.17 71.67-19.68 71.58-19.19 71.53-18.8L71.53-18.8Q71.19-18.41 71.19-18.31L71.19-18.31Q70.89-17.92 70.89-17.82 70.89-17.72 70.8-17.63L70.8-17.63Q70.7-17.48 70.7-17.36 70.7-17.24 70.6-17.04L70.6-17.04Q70.41-16.5 70.41-16.14 70.41-15.77 70.31-15.43L70.31-15.43Q70.5-14.65 70.48-13.82 70.45-12.99 70.94-12.45L70.94-12.45Q70.94-11.77 70.94-11.72L70.94-11.72Q71.09-11.04 71.02-10.55 70.94-10.06 70.89-9.52L70.89-9.52Q70.89-9.28 70.77-9.11 70.65-8.94 70.7-8.74L70.7-8.74Q70.75-8.4 71.04-8.35 71.33-8.3 71.48-8.06L71.48-8.06Q71.53-7.96 71.55-7.76 71.58-7.57 71.63-7.32L71.63-7.32Q71.77-6.74 71.85-6.01 71.92-5.27 72.11-4.59L72.11-4.59Q72.16-4.44 72.24-4.3 72.31-4.15 72.41-4L72.41-4Q72.5-3.81 72.6-3.59 72.7-3.37 72.8-3.22L72.8-3.22Q73.04-2.98 73.26-2.61 73.48-2.25 73.48-1.86L73.48-1.86Q73.43-1.51 73.31-1.17 73.19-0.83 73.09-0.59L73.09-0.59Q72.7-0.29 72.38 0.02 72.07 0.34 71.53 0.44L71.53 0.44Q71.33 0.68 70.94 0.68 70.55 0.68 70.31 0.68L70.31 0.68Q69.97 0.54 69.67 0.39 69.38 0.24 69.18 0L69.18 0Q69.04-0.34 68.96-0.46 68.89-0.59 68.84-0.73L68.84-0.73Q68.75-1.07 68.75-1.39 68.75-1.71 68.5-1.95L68.5-1.95Q68.45-2.54 68.35-2.66 68.26-2.78 68.31-3.08L68.31-3.08Q67.87-2.39 67.62-2.17 67.38-1.95 67.08-1.71L67.08-1.71Q66.11-1.07 65.3-0.98 64.5-0.88 63.86-0.63L63.86-0.63Q63.62-0.73 63.4-0.63 63.18-0.54 62.93-0.59L62.93-0.59Q62.69-0.49 62.2-0.49 61.71-0.49 61.27-0.44L61.27-0.44Q60.93-0.39 60.59-0.42 60.25-0.44 59.86-0.44L59.86-0.44Q59.66-0.44 59.44-0.39 59.22-0.34 59.03-0.39L59.03-0.39Q58.88-0.39 58.66-0.49 58.44-0.59 58.2-0.59L58.2-0.59Q57.95-0.68 57.76-0.76 57.56-0.83 57.47-1.07L57.47-1.07Q57.22-1.07 57.08-1.17 56.93-1.27 56.78-1.37L56.78-1.37Q56.68-1.61 56.39-1.73 56.1-1.86 56-2.1L56-2.1Q55.61-2.25 55.39-2.54 55.17-2.83 54.88-3.08L54.88-3.08Q54.78-3.61 54.66-4.13 54.54-4.64 54.29-5.08L54.29-5.08Q54.39-5.32 54.34-5.62 54.29-5.91 54.39-6.15L54.39-6.15Q54.15-6.49 54.17-7.03 54.19-7.57 54.29-7.96L54.29-7.96Q54.34-8.5 54.24-8.59L54.24-8.59Q54.34-8.84 54.41-9.08 54.49-9.33 54.49-9.72L54.49-9.72Q54.68-10.25 54.78-10.74 54.88-11.23 55.17-11.62L55.17-11.62Q55.12-11.77 55.24-11.94 55.37-12.11 55.27-12.26L55.27-12.26Q55.37-12.35 55.44-12.5 55.51-12.65 55.61-12.74L55.61-12.74Q55.71-12.94 55.76-13.09 55.81-13.23 55.81-13.33L55.81-13.33Q55.85-13.57 55.81-13.75 55.76-13.92 55.76-14.06L55.76-14.06Q55.71-14.75 55.66-15.04 55.61-15.33 55.61-15.58L55.61-15.58Q55.61-16.26 55.68-16.53 55.76-16.8 55.56-16.99L55.56-16.99Q55.61-17.48 55.56-17.75 55.51-18.02 55.61-18.21L55.61-18.21Q55.56-18.41 55.49-18.63 55.41-18.85 55.51-18.99L55.51-18.99Q55.41-19.24 55.37-19.48 55.32-19.73 55.17-19.97L55.17-19.97Q54.93-20.36 54.54-20.46 54.15-20.56 53.61-20.7L53.61-20.7Q53.36-20.95 52.97-21.09 52.58-21.24 52.39-21.58L52.39-21.58Q52-21.58 51.9-21.95 51.8-22.31 51.56-22.51L51.56-22.51Q51.61-23.19 51.78-23.41 51.95-23.63 51.95-23.93L51.95-23.93Q52.19-24.22 52.44-24.34 52.68-24.46 52.92-24.66L52.92-24.66Q53.22-24.66 53.71-24.85L53.71-24.85Q54.29-25.2 54.61-25.15 54.93-25.1 55.27-25.2L55.27-25.2Q55.71-25 56.15-24.88 56.59-24.76 56.98-24.56L56.98-24.56Q57.47-24.46 57.78-24.41 58.1-24.37 58.42-24.29 58.74-24.22 58.98-24.07 59.22-23.93 59.32-23.63L59.32-23.63Q59.52-23.54 59.57-23.39 59.61-23.24 59.71-23.05L59.71-23.05Q59.81-22.75 59.69-22.46 59.57-22.17 59.61-21.83L59.61-21.83Q59.61-21.63 59.66-21.48 59.71-21.34 59.71-21.19L59.71-21.19Q59.66-20.8 59.49-20.51 59.32-20.21 59.32-19.82L59.32-19.82Q59.27-19.29 59.22-19.04 59.17-18.8 59.17-18.51L59.17-18.51Q59.32-18.02 59.3-17.97 59.27-17.92 59.27-17.87L59.27-17.87Q59.27-17.63 59.3-17.38 59.32-17.14 59.32-16.89L59.32-16.89Q59.32-16.55 59.27-16.11 59.22-15.67 59.17-15.28L59.17-15.28Q59.13-14.89 58.91-14.48 58.69-14.06 58.74-13.57L58.74-13.57Q58.39-13.13 58.52-12.72 58.64-12.3 58.74-11.87L58.74-11.87Q58.78-11.67 58.76-11.45 58.74-11.23 58.74-11.08L58.74-11.08Q58.83-10.69 58.74-10.5L58.74-10.5Q58.69-10.11 58.78-9.67 58.88-9.23 58.69-8.98L58.69-8.98Q58.74-8.74 58.69-8.54 58.64-8.35 58.69-8.15L58.69-8.15Q58.69-7.52 58.98-7.06 59.27-6.59 59.52-6.15L59.52-6.15Q59.71-6.01 59.96-5.93 60.2-5.86 60.49-5.71L60.49-5.71Q60.64-5.62 60.74-5.52 60.83-5.42 60.93-5.37L60.93-5.37Q61.03-5.32 61.23-5.32 61.42-5.32 61.57-5.32L61.57-5.32Q62.1-5.27 62.54-5.37 62.98-5.47 63.47-5.52L63.47-5.52Q63.81-5.66 64.2-5.81 64.59-5.96 64.99-5.96L64.99-5.96Q65.52-6.4 65.77-6.57 66.01-6.74 66.11-7.03ZM60.83-11.52L61.08-11.18Q61.03-10.74 60.57-10.42 60.1-10.11 59.86-10.64L59.86-10.64Q59.66-11.18 60.08-11.43 60.49-11.67 60.83-11.52L60.83-11.52ZM72.46-8.59L72.46-8.69Q72.21-8.94 72.14-9.13 72.07-9.33 72.11-9.57L72.11-9.57Q72.11-9.81 72.14-10.03 72.16-10.25 72.36-10.35L72.36-10.35Q72.26-10.55 72.48-10.79 72.7-11.04 72.9-10.99L72.9-10.99Q73.14-11.18 73.36-11.01 73.58-10.84 73.77-10.79L73.77-10.79Q74.02-10.3 74.09-9.64 74.16-8.98 73.92-8.45L73.92-8.45Q73.19-8.4 72.94-8.4 72.7-8.4 72.46-8.59L72.46-8.59ZM60.54-7.13L60.54-7.13Q59.91-7.71 60.05-8.4L60.05-8.4Q60.15-8.79 60.52-8.94 60.88-9.08 61.18-8.98L61.18-8.98Q61.27-8.89 61.45-8.62 61.62-8.35 61.66-8.11L61.66-8.11Q61.71-7.76 61.57-7.52 61.42-7.28 61.23-7.08L61.23-7.08Q60.54-6.98 60.54-7.13ZM53.75 0.1L53.75 0.1Q53.75-0.2 53.58-0.44 53.41-0.68 53.51-1.17L53.51-1.17Q54.1-1.56 54.37-1.64 54.63-1.71 54.88-1.56L54.88-1.56Q55.12-1.32 55.32-1.03 55.51-0.73 55.46-0.2L55.46-0.2Q55.22 0.39 54.73 0.39L54.73 0.39Q54.44 0.44 54.22 0.27 54 0.1 53.75 0.1ZM76.16-35.35L76.16-35.35Q76.6-35.4 76.77-35.23 76.95-35.06 76.97-34.79 76.99-34.52 76.92-34.23 76.85-33.94 76.7-33.74L76.7-33.74Q76.21-33.15 76.07-32.91 75.92-32.67 75.58-32.57L75.58-32.57Q75.09-32.32 74.68-32.54 74.26-32.76 74.36-33.3L74.36-33.3Q74.41-33.45 74.53-33.64 74.65-33.84 74.75-34.03L74.75-34.03Q74.8-34.18 74.82-34.35 74.85-34.52 74.94-34.62L74.94-34.62Q75.14-34.72 75.26-34.81 75.38-34.91 75.48-35.11L75.48-35.11Q75.63-35.21 75.82-35.23 76.02-35.25 76.16-35.35ZM99.94-27.15L99.94-27.15Q100.14-27.25 100.36-27.32 100.58-27.39 100.82-27.54L100.82-27.54Q101.56-27.29 101.56-26.71L101.56-26.71Q101.31-25.98 100.97-25.88L100.97-25.88Q100.58-25.63 100.38-25.56 100.19-25.49 99.94-25.88L99.94-25.88Q99.75-26.51 99.85-26.73 99.94-26.95 99.94-27.15ZM98.97-14.99L98.97-14.99Q99.46-14.16 99.65-13.18L99.65-13.18Q99.7-12.79 99.6-12.45 99.5-12.11 99.21-11.96L99.21-11.96Q98.63-11.82 98.53-11.87L98.53-11.87Q98.19-11.67 97.84-11.72 97.5-11.77 97.11-11.87L97.11-11.87Q96.87-12.01 96.89-12.45 96.92-12.89 96.62-13.04L96.62-13.04Q96.67-13.18 96.57-13.26 96.48-13.33 96.57-13.57L96.57-13.57Q96.87-14.11 96.92-14.18 96.97-14.26 97.21-14.31L97.21-14.31Q97.31-14.75 97.87-14.89 98.43-15.04 98.97-14.99ZM78.22-11.28L78.22-11.28Q78.31-10.84 78.17-10.55L78.17-10.55Q78.07-10.4 77.9-10.23 77.73-10.06 77.58-10.01L77.58-10.01Q77.29-9.91 76.85-10.25 76.41-10.6 76.56-11.08L76.56-11.08Q76.75-11.43 77.36-11.52 77.97-11.62 78.22-11.28ZM98.23-10.69L98.67-10.74Q98.97-10.5 98.87-10.01 98.77-9.52 98.38-9.42L98.38-9.42Q97.89-9.52 97.84-9.69 97.8-9.86 97.7-9.96L97.7-9.96Q97.6-10.21 97.75-10.47 97.89-10.74 98.23-10.69L98.23-10.69ZM87.98-4.98L87.98-4.98Q87.79-5.08 87.54-5.1 87.3-5.13 87.15-5.32L87.15-5.32Q86.96-5.57 86.91-5.74 86.86-5.91 86.81-6.15L86.81-6.15Q86.76-6.3 86.76-6.45 86.76-6.59 86.86-6.69L86.86-6.69Q87.2-6.93 87.88-6.91 88.57-6.88 88.96-6.64L88.96-6.64Q89.2-6.01 88.79-5.66 88.37-5.32 87.98-4.98ZM86.32-24.66L86.32-24.66Q86.17-24.8 86.37-25 86.56-25.2 86.56-25.44L86.56-25.44Q86.81-25.63 87.13-25.83 87.44-26.03 87.69-25.88L87.69-25.88Q87.79-26.07 88.13-26.03 88.47-25.98 88.62-26.17L88.62-26.17Q89.1-25.98 89.49-26.17 89.89-26.37 90.32-26.12L90.32-26.12Q90.72-25.54 90.79-25.22 90.86-24.9 90.96-24.61L90.96-24.61Q91.11-23.58 91.35-23.19 91.59-22.8 91.74-22.41L91.74-22.41Q91.98-22.31 92.25-22.22 92.52-22.12 92.77-22.02L92.77-22.02Q93.25-22.12 93.47-22.22 93.69-22.31 93.94-22.41L93.94-22.41Q94.13-22.51 94.3-22.68 94.47-22.85 94.67-23L94.67-23Q94.67-23.73 94.96-24.12L94.96-24.12Q94.96-24.37 94.96-24.76 94.96-25.15 94.91-25.39L94.91-25.39Q94.62-25.83 94.4-26.66 94.18-27.49 94.08-28.08L94.08-28.08Q93.99-28.32 93.77-28.49 93.55-28.66 93.6-28.91L93.6-28.91Q93.21-29 93.21-29.39L93.21-29.39Q93.01-29.59 92.84-29.69 92.67-29.79 92.57-29.98L92.57-29.98Q92.18-30.08 91.81-30.22 91.45-30.37 91.11-30.47L91.11-30.47Q90.72-30.71 90.5-30.69 90.28-30.66 90.13-30.76L90.13-30.76Q89.64-30.81 89.18-30.83 88.71-30.86 88.27-30.96L88.27-30.96Q87.93-30.86 87.57-30.91 87.2-30.96 86.86-30.81L86.86-30.81Q86.66-30.71 86.54-30.66 86.42-30.62 86.22-30.57L86.22-30.57Q85.69-30.37 85.05-30.22 84.42-30.08 83.88-29.98L83.88-29.98Q83.24-29.69 82.85-29.03 82.46-28.37 82.07-27.73L82.07-27.73Q81.78-27.49 81.76-27.08 81.73-26.66 81.54-26.42L81.54-26.42Q81.29-25.68 81.14-25.29 81-24.9 81.05-24.51L81.05-24.51Q81.14-24.27 81.22-23.88 81.29-23.49 81.36-23.05 81.44-22.61 81.49-22.22 81.54-21.83 81.63-21.63L81.63-21.63 81.78-20.85Q81.83-20.7 81.95-20.58 82.07-20.46 81.97-20.31L81.97-20.31Q82.07-19.87 82.32-19.63 82.56-19.38 82.76-19.04L82.76-19.04Q83.1-18.55 83.68-18.48 84.27-18.41 84.71-18.16L84.71-18.16Q85.34-18.02 85.61-17.82 85.88-17.63 86.15-17.38 86.42-17.14 86.66-16.92 86.91-16.7 87.3-16.6L87.3-16.6Q87.39-16.31 87.71-16.28 88.03-16.26 88.18-16.06L88.18-16.06Q89.15-15.97 89.84-15.58L89.84-15.58Q90.42-15.58 90.91-15.38L90.91-15.38Q91.15-15.48 91.35-15.33 91.55-15.19 91.79-15.14L91.79-15.14Q91.98-14.89 92.33-14.89 92.67-14.89 92.91-14.79L92.91-14.79Q93.01-14.65 93.23-14.55 93.45-14.45 93.64-14.45L93.64-14.45Q93.94-14.26 94.04-14.09 94.13-13.92 94.23-13.67L94.23-13.67Q94.57-13.13 94.84-12.48 95.11-11.82 95.35-11.18L95.35-11.18Q95.65-10.21 95.82-9.52 95.99-8.84 96.04-8.15L96.04-8.15Q96.04-7.32 96.04-6.59 96.04-5.86 95.84-5.13L95.84-5.13Q95.74-4.49 95.48-3.93 95.21-3.37 94.96-2.83L94.96-2.83Q94.91-2.64 94.79-2.54 94.67-2.44 94.57-2.34L94.57-2.34Q94.38-2.15 94.28-1.93 94.18-1.71 93.99-1.56L93.99-1.56Q93.74-1.32 93.4-1.05 93.06-0.78 92.67-0.63L92.67-0.63Q92.13-0.1 91.37 0.05 90.62 0.2 89.98 0.59L89.98 0.59Q89.54 0.63 89.25 0.78 88.96 0.93 88.71 0.83L88.71 0.83Q88.62 0.93 88.44 0.9 88.27 0.88 88.08 0.93L88.08 0.93Q87.83 0.93 87.54 1.07 87.25 1.22 86.91 1.27L86.91 1.27Q86.61 1.32 86.35 1.22 86.08 1.12 85.78 1.32L85.78 1.32Q85.54 1.27 85.22 1.32 84.9 1.37 84.76 1.51L84.76 1.51 83.15 1.42Q83.05 1.27 82.81 1.29 82.56 1.32 82.56 1.17L82.56 1.17Q81.78 1.07 81.58 0.88L81.58 0.88Q81.24 0.73 80.93 0.61 80.61 0.49 80.46 0.2L80.46 0.2Q80.02 0.1 79.97-0.05 79.92-0.2 79.68-0.1L79.68-0.1Q79.58-0.44 79.19-0.39L79.19-0.39Q78.85-0.68 78.7-0.88 78.56-1.07 78.46-1.32L78.46-1.32Q77.92-1.61 77.82-2.05L77.82-2.05Q77.58-2.34 77.43-2.49L77.43-2.49Q77.19-3.03 76.95-3.47 76.7-3.91 76.85-4.49L76.85-4.49Q76.75-4.69 76.77-4.81 76.8-4.93 76.8-5.13L76.8-5.13Q76.7-5.32 76.6-5.49 76.51-5.66 76.51-5.86L76.51-5.86Q76.51-6.45 76.6-6.62 76.7-6.79 76.8-6.93L76.8-6.93Q76.85-7.13 76.87-7.3 76.9-7.47 77.14-7.47L77.14-7.47Q77.14-7.71 77.39-7.89 77.63-8.06 77.78-8.3L77.78-8.3Q78.36-8.59 78.78-8.81 79.19-9.03 79.58-9.13L79.58-9.13Q79.92-9.13 80.22-9.28 80.51-9.42 80.66-9.18L80.66-9.18Q81.05-9.28 81.61-9.23 82.17-9.18 82.56-9.08L82.56-9.08Q82.85-9.18 83.17-9.25 83.49-9.33 83.68-9.03L83.68-9.03Q83.64-8.59 83.81-8.25 83.98-7.91 84.07-7.52L84.07-7.52Q84.12-7.18 84.12-6.93 84.12-6.69 84.22-6.45L84.22-6.45Q84.37-6.1 84.32-5.57 84.27-5.03 84.03-4.64L84.03-4.64Q84.22-4 84.42-3.93 84.61-3.86 84.76-3.71L84.76-3.71Q85.1-3.42 85.3-3.47 85.49-3.52 85.64-3.42L85.64-3.42Q86.47-3.03 86.98-3.2 87.49-3.37 88.03-3.42L88.03-3.42Q88.37-3.76 88.79-3.96 89.2-4.15 89.45-4.54L89.45-4.54Q89.69-4.93 89.93-5.08L89.93-5.08Q89.84-5.57 90.15-5.88 90.47-6.2 90.47-6.59L90.47-6.59Q90.52-7.08 90.45-7.54 90.37-8.01 90.18-8.4L90.18-8.4Q90.18-8.98 89.79-9.45 89.4-9.91 89.25-10.45L89.25-10.45Q88.81-10.74 88.71-10.84 88.62-10.94 88.52-11.04L88.52-11.04Q88.32-11.13 88.13-11.18 87.93-11.23 87.83-11.38L87.83-11.38Q87.49-11.47 87.22-11.62 86.96-11.77 86.71-11.77L86.71-11.77Q86.47-12.01 86.03-12.08 85.59-12.16 85.34-12.35L85.34-12.35Q84.71-12.35 84.22-12.7L84.22-12.7Q83.54-12.79 82.88-12.94 82.22-13.09 81.73-13.48L81.73-13.48Q81.44-13.77 81.29-13.77 81.14-13.77 81.14-13.92L81.14-13.92Q80.75-14.01 80.56-14.28 80.36-14.55 80.12-14.79L80.12-14.79Q79.29-14.94 78.95-15.38L78.95-15.38Q78.41-15.58 78.22-15.75 78.02-15.92 77.82-16.02L77.82-16.02Q77.24-16.36 77.19-16.94L77.19-16.94Q77.14-17.24 76.97-17.6 76.8-17.97 76.85-18.21L76.85-18.21Q76.56-19.09 76.41-19.7 76.26-20.31 76.02-20.85L76.02-20.85Q75.82-21.53 75.75-21.85 75.68-22.17 75.58-22.41L75.58-22.41Q75.53-22.85 75.43-23.14 75.33-23.44 75.19-23.73L75.19-23.73Q75.24-23.97 75.21-24.07 75.19-24.17 75.29-24.27L75.29-24.27Q75.09-24.66 75.19-25.02 75.29-25.39 75.14-25.78L75.14-25.78Q75.24-26.12 75.29-26.51 75.33-26.9 75.19-27.15L75.19-27.15Q75.29-27.54 75.31-28 75.33-28.47 75.58-28.71L75.58-28.71Q75.53-29.05 75.68-29.25 75.82-29.44 75.92-29.74L75.92-29.74Q76.16-30.03 76.38-30.47 76.6-30.91 76.7-31.3L76.7-31.3Q76.99-31.54 77.19-31.86 77.39-32.18 77.63-32.47L77.63-32.47Q78.12-33.01 78.63-33.4 79.14-33.79 79.68-34.08L79.68-34.08Q80.41-34.67 80.8-34.89 81.19-35.11 81.63-35.25L81.63-35.25Q82.22-35.35 82.22-35.35L82.22-35.35Q82.76-35.6 83.29-35.64 83.83-35.69 84.42-35.79L84.42-35.79Q85.39-36.13 86.42-36.21 87.44-36.28 88.42-36.23L88.42-36.23Q88.71-36.33 89.06-36.35 89.4-36.38 89.64-36.38L89.64-36.38Q90.62-36.38 91.37-36.21 92.13-36.04 92.77-35.79L92.77-35.79Q93.06-35.79 93.38-35.84 93.69-35.89 94.13-35.84L94.13-35.84Q94.43-35.84 94.65-35.72 94.87-35.6 95.11-35.64L95.11-35.64Q95.35-35.5 95.5-35.28 95.65-35.06 95.84-34.81L95.84-34.81Q96.09-34.42 96.4-34.13 96.72-33.84 96.92-33.5L96.92-33.5Q97.01-33.25 97.11-33.03 97.21-32.81 97.4-32.67L97.4-32.67Q97.45-32.42 97.55-32.23 97.65-32.03 97.55-31.84L97.55-31.84Q97.65-31.59 97.75-31.25 97.84-30.91 97.75-30.66L97.75-30.66Q97.89-30.57 97.87-30.42 97.84-30.27 97.89-30.08L97.89-30.08Q98.04-29.2 98.16-28.76 98.28-28.32 98.33-27.88L98.33-27.88Q98.28-27.39 98.33-27.27 98.38-27.15 98.38-27L98.38-27Q98.33-26.86 98.31-26.64 98.28-26.42 98.19-26.27L98.19-26.27Q97.99-25.78 98.09-25.63 98.19-25.49 98.23-25.34L98.23-25.34Q98.77-24.71 98.67-23.49L98.67-23.49Q98.63-23.05 98.55-22.58 98.48-22.12 98.38-21.63L98.38-21.63Q98.33-21.34 98.21-21.02 98.09-20.7 98.14-20.36L98.14-20.36Q97.89-19.68 97.33-19.36 96.77-19.04 96.04-18.9L96.04-18.9Q95.89-18.8 95.7-18.73 95.5-18.65 95.4-18.55L95.4-18.55Q95.11-18.51 94.74-18.48 94.38-18.46 93.84-18.36L93.84-18.36Q93.45-18.31 92.96-18.14 92.47-17.97 91.98-18.21L91.98-18.21Q91.84-18.12 91.69-18.24 91.55-18.36 91.3-18.36L91.3-18.36Q90.96-18.46 90.57-18.38 90.18-18.31 89.79-18.41L89.79-18.41Q89.69-18.55 89.49-18.6 89.3-18.65 89.2-18.8L89.2-18.8Q88.52-19.04 88.18-19.31 87.83-19.58 87.54-19.92L87.54-19.92Q87.15-20.12 87.15-20.36L87.15-20.36Q86.86-20.75 86.71-20.9L86.71-20.9Q86.61-21.24 86.59-21.58 86.56-21.92 86.32-22.27L86.32-22.27Q86.13-23.29 86.03-23.63L86.03-23.63Q86.13-23.93 86.1-24.19 86.08-24.46 86.32-24.66ZM118.79-32.86L118.79-32.86Q118.84-32.62 118.81-32.45 118.79-32.28 118.59-32.03L118.59-32.03Q118.5-31.84 118.35-31.71 118.2-31.59 117.91-31.54L117.91-31.54Q117.32-31.54 116.98-31.79L116.98-31.79Q116.98-32.03 116.84-32.15 116.69-32.28 116.79-32.52L116.79-32.52Q117.08-33.45 117.79-33.42 118.5-33.4 118.79-32.86ZM103.8-30.32L103.8-30.32Q104.48-29.79 104.41-29.13 104.34-28.47 103.9-28.27L103.9-28.27Q103.7-28.42 103.48-28.34 103.26-28.27 102.97-28.37L102.97-28.37Q102.77-29.15 103.02-29.64 103.26-30.13 103.8-30.32ZM112.73-19.19L112.83-19.29Q112.73-19.73 112.91-20.07 113.08-20.41 113.12-20.8L113.12-20.8Q113.32-20.9 113.52-21.02 113.71-21.14 113.91-21.19L113.91-21.19Q114.35-21.44 114.86-21.36 115.37-21.29 115.37-20.9L115.37-20.9Q115.37-20.8 115.3-20.63 115.22-20.46 115.18-20.36L115.18-20.36Q115.03-20.12 114.81-19.87 114.59-19.63 114.49-19.38L114.49-19.38Q114.15-18.99 113.78-18.75 113.42-18.51 112.88-18.65L112.88-18.65Q112.78-18.75 112.81-18.92 112.83-19.09 112.73-19.19L112.73-19.19ZM117.81-21.19L117.81-21.19Q117.91-20.95 117.89-20.68 117.86-20.41 117.62-20.31L117.62-20.31Q117.47-20.21 117.28-20.21 117.08-20.21 116.93-20.12L116.93-20.12Q116.79-20.21 116.59-20.31 116.4-20.41 116.35-20.61L116.35-20.61Q116.3-20.8 116.47-20.97 116.64-21.14 116.88-21.26 117.13-21.39 117.4-21.36 117.67-21.34 117.81-21.19ZM105.02-0.1L105.02-0.1Q105.26-0.34 105.56-0.17 105.85 0 106.09 0.05L106.09 0.05Q106.53 0.2 106.73 0.34 106.92 0.49 107.02 0.71 107.12 0.93 107.07 1.15 107.02 1.37 106.83 1.46L106.83 1.46Q106.87 1.71 106.68 1.81 106.48 1.9 106.44 2.15L106.44 2.15Q106.24 2.2 106.12 2.27 106 2.34 105.8 2.29L105.8 2.29Q105.51 2.29 105.34 2.1 105.17 1.9 105.07 1.66 104.97 1.42 104.9 1.12 104.82 0.83 104.68 0.63L104.68 0.63Q104.68 0.39 104.85 0.27 105.02 0.15 105.02-0.1ZM104.92-36.52L105.07-36.52Q105.41-36.82 105.41-36.96L105.41-36.96Q105.65-37.16 105.92-37.33 106.19-37.5 106.53-37.7L106.53-37.7Q106.87-37.65 107.27-37.7 107.66-37.74 108-37.65L108-37.65Q108.68-37.4 109.15-37.16 109.61-36.91 110.05-36.67L110.05-36.67Q110.15-36.38 110.32-36.23 110.49-36.08 110.73-35.94L110.73-35.94Q110.98-35.6 111.1-35.21 111.22-34.81 111.32-34.28L111.32-34.28Q111.42-33.84 111.32-33.45 111.22-33.06 111.17-32.62L111.17-32.62Q111.12-32.13 111.12-31.69 111.12-31.25 110.88-30.96L110.88-30.96Q110.88-30.37 110.76-29.74 110.63-29.1 110.73-28.56L110.73-28.56Q110.63-28.32 110.66-27.98 110.68-27.64 110.68-27.34L110.68-27.34Q110.83-27 111.17-26.95 111.51-26.9 111.93-26.93 112.34-26.95 112.73-26.95 113.12-26.95 113.37-26.76L113.37-26.76Q114.64-26.81 115.62-26.76L115.62-26.76Q116.05-26.81 116.13-26.88 116.2-26.95 116.3-27L116.3-27 117.13-27Q117.57-26.95 117.86-26.88 118.15-26.81 118.5-26.76L118.5-26.76Q118.74-26.71 118.98-26.71 119.23-26.71 119.47-26.46L119.47-26.46Q119.62-25.88 119.72-25.63 119.81-25.39 119.91-25.15L119.91-25.15Q120.06-24.07 119.89-23.46 119.72-22.85 119.33-22.46L119.33-22.46Q119.03-22.46 118.81-22.34 118.59-22.22 118.3-22.27L118.3-22.27Q117.76-22.22 117.4-22.27 117.03-22.31 116.74-22.12L116.74-22.12Q116.35-22.07 116.13-22.17 115.91-22.27 115.71-22.41L115.71-22.41Q115.37-22.31 115.13-22.46 114.88-22.61 114.54-22.61L114.54-22.61Q114-22.8 113.54-23.05 113.08-23.29 112.54-23.19L112.54-23.19Q112-23.14 111.95-22.95 111.9-22.75 111.9-22.27L111.9-22.27Q111.9-21.73 111.86-21.24 111.81-20.75 111.76-20.31L111.76-20.31Q111.37-19.92 111.27-19.34 111.17-18.75 110.83-18.36L110.83-18.36Q110.73-17.97 110.73-17.58 110.73-17.19 110.73-16.75L110.73-16.75Q110.59-16.41 110.59-15.89 110.59-15.38 110.34-15.09L110.34-15.09Q110.29-14.36 110.22-13.67 110.15-12.99 110.2-12.16L110.2-12.16Q110-11.43 110.1-10.84L110.1-10.84Q110.15-10.06 110-9.28 109.85-8.5 109.9-7.81L109.9-7.81Q109.95-6.59 109.85-5.76 109.76-4.93 110.24-4.25L110.24-4.25Q110.63-3.81 110.95-3.56 111.27-3.32 111.56-2.93L111.56-2.93Q112.34-2.49 112.88-2.39 113.42-2.29 113.98-2.29 114.54-2.29 115.13-2.34 115.71-2.39 116.2-2.39L116.2-2.39Q116.59-2.54 116.91-2.66 117.23-2.78 117.71-2.78L117.71-2.78Q117.86-2.88 117.96-3 118.06-3.13 118.2-3.22L118.2-3.22Q118.25-3.61 118.5-4 118.74-4.39 118.69-4.79L118.69-4.79Q118.59-5.47 118.67-5.79 118.74-6.1 118.69-6.45L118.69-6.45Q118.35-6.93 118.35-7.67L118.35-7.67Q118.3-8.11 118.11-8.18 117.91-8.25 117.81-8.4L117.81-8.4Q117.37-8.4 117.08-8.3 116.79-8.2 116.45-8.06L116.45-8.06Q116.3-7.81 116.32-7.52 116.35-7.23 116.37-6.96 116.4-6.69 116.37-6.45 116.35-6.2 116.2-6.01L116.2-6.01Q116.1-5.81 115.71-5.52 115.32-5.22 115.08-5.13L115.08-5.13Q114.88-4.83 114.71-4.88 114.54-4.93 114.3-5.03L114.3-5.03Q114.05-5.13 113.98-5.13 113.91-5.13 113.81-5.32L113.81-5.32Q113.71-5.42 113.52-5.54 113.32-5.66 113.37-5.86L113.37-5.86Q112.83-6.25 112.66-6.45 112.49-6.64 112.29-6.88L112.29-6.88Q112.15-7.28 112.17-7.37 112.2-7.47 112.2-7.57L112.2-7.57Q111.9-8.15 111.95-8.64L111.95-8.64Q112.05-9.23 112.15-9.38 112.25-9.52 112.34-9.77L112.34-9.77Q112.69-10.3 113.08-10.52 113.47-10.74 113.86-11.08L113.86-11.08Q114.2-11.57 114.59-11.77 114.98-11.96 115.47-12.06L115.47-12.06Q115.71-12.11 115.93-12.11 116.15-12.11 116.25-11.96L116.25-11.96Q116.49-12.06 116.69-11.99 116.88-11.91 117.08-11.96L117.08-11.96Q117.28-11.96 117.45-12.01 117.62-12.06 117.86-11.91L117.86-11.91Q118.01-12.01 118.18-11.96 118.35-11.91 118.5-11.96L118.5-11.96Q118.74-11.87 119.03-11.72 119.33-11.57 119.62-11.43L119.62-11.43Q120.16-11.28 120.13-11.23 120.11-11.18 120.16-11.13L120.16-11.13Q120.3-10.99 120.45-10.96 120.6-10.94 120.79-10.84L120.79-10.84Q121.03-10.74 121.11-10.64 121.18-10.55 121.28-10.55L121.28-10.55Q121.38-10.25 121.43-9.91 121.47-9.57 121.57-9.18L121.57-9.18Q121.67-8.94 121.87-8.47 122.06-8.01 121.82-7.76L121.82-7.76Q122.06-7.37 121.87-6.93L121.87-6.93Q122.01-6.64 122.04-6.32 122.06-6.01 122.06-5.71L122.06-5.71Q122.06-5.32 121.89-4.93 121.72-4.54 121.67-4.15L121.67-4.15Q121.62-3.71 121.57-3.25 121.52-2.78 121.43-2.34L121.43-2.34Q121.28-2.1 121.21-1.9 121.13-1.71 121.03-1.37L121.03-1.37Q120.89-0.98 120.6-0.83 120.3-0.68 120.2-0.34L120.2-0.34Q120.06-0.29 119.91-0.22 119.77-0.15 119.67 0L119.67 0Q118.79 0.63 118.01 0.85 117.23 1.07 116.59 1.46L116.59 1.46Q116.35 1.42 116.13 1.54 115.91 1.66 115.62 1.56L115.62 1.56Q115.42 1.56 115.2 1.54 114.98 1.51 114.74 1.51L114.74 1.51Q114.2 1.66 113.98 1.42 113.76 1.17 113.37 1.12L113.37 1.12Q113.03 1.12 112.73 1.17 112.44 1.22 112.29 0.83L112.29 0.83Q111.86 0.68 111.46 0.83L111.46 0.83Q111.27 0.73 111.1 0.71 110.93 0.68 110.73 0.59L110.73 0.59Q110.34 0.63 110 0.49 109.66 0.34 109.32 0.1 108.97-0.15 108.68-0.44 108.39-0.73 108.1-0.93L108.1-0.93Q107.75-1.12 107.44-1.22 107.12-1.32 106.83-1.42L106.83-1.42Q106.68-1.56 106.56-1.68 106.44-1.81 106.29-1.9L106.29-1.9Q106.14-2.64 105.97-2.83 105.8-3.03 105.75-3.32L105.75-3.32Q105.75-3.52 105.78-3.59 105.8-3.66 105.75-3.86L105.75-3.86Q105.65-4.05 105.68-4.22 105.7-4.39 105.56-4.59L105.56-4.59Q105.65-4.69 105.51-4.91 105.36-5.13 105.36-5.37L105.36-5.37Q105.31-5.66 105.14-5.96 104.97-6.25 105.07-6.54L105.07-6.54Q105.12-6.79 105.09-7.08 105.07-7.37 104.92-7.57L104.92-7.57Q104.82-7.91 104.87-8.23 104.92-8.54 104.92-8.89L104.92-8.89Q104.92-9.03 104.85-9.2 104.78-9.38 104.78-9.62L104.78-9.62Q104.78-9.81 104.75-10.08 104.73-10.35 104.82-10.55L104.82-10.55Q104.68-10.84 104.73-11.18 104.78-11.52 104.82-11.91L104.82-11.91Q104.92-12.3 104.9-12.62 104.87-12.94 104.92-13.38L104.92-13.38Q104.97-13.62 105.04-13.82 105.12-14.01 105.17-14.26L105.17-14.26Q105.26-14.75 105.29-15.23 105.31-15.72 105.61-16.16L105.61-16.16Q105.61-16.5 105.7-16.63 105.8-16.75 105.75-16.89L105.75-16.89Q105.75-17.29 105.82-17.53 105.9-17.77 105.8-18.07L105.8-18.07Q105.7-18.31 105.61-18.65 105.51-18.99 105.61-19.24L105.61-19.24Q105.61-19.53 105.43-19.95 105.26-20.36 105.61-20.65L105.61-20.65Q105.65-20.9 105.75-21.14 105.85-21.39 105.9-21.68L105.9-21.68 105.9-22.41Q105.85-22.66 105.7-22.78 105.56-22.9 105.56-23.14L105.56-23.14Q105.26-23.19 105.07-23.05 104.87-22.9 104.63-22.85L104.63-22.85Q104.34-22.8 104.04-22.75 103.75-22.71 103.65-22.36L103.65-22.36Q103.36-22.31 103.16-22.19 102.97-22.07 102.72-21.97L102.72-21.97Q102.53-21.88 102.19-21.73 101.85-21.58 101.7-21.68L101.7-21.68Q101.45-21.78 101.24-21.95 101.02-22.12 100.67-22.22L100.67-22.22Q100.53-22.27 100.33-22.27 100.14-22.27 99.99-22.41L99.99-22.41Q99.31-23 98.96-24.22L98.96-24.22Q98.62-24.46 98.62-25.15L98.62-25.15Q98.67-25.54 98.65-25.85 98.62-26.17 98.72-26.42L98.72-26.42Q98.92-26.86 99.01-26.93 99.11-27 99.21-27.1L99.21-27.1Q99.31-27.25 99.43-27.42 99.55-27.59 99.79-27.59L99.79-27.59Q100.23-27.83 100.38-27.88 100.53-27.93 100.77-27.93L100.77-27.93Q101.11-27.93 101.41-27.73 101.7-27.54 102.09-27.44L102.09-27.44Q102.28-27.39 102.46-27.42 102.63-27.44 102.82-27.39L102.82-27.39Q103.12-27.29 103.38-27.1 103.65-26.9 103.9-26.9L103.9-26.9Q104.04-26.9 104.26-27 104.48-27.1 104.68-27.15L104.68-27.15Q104.92-27.15 105.07-27.17 105.21-27.2 105.46-27.29L105.46-27.29Q105.8-27.69 105.65-28.34 105.51-29 105.61-29.49L105.61-29.49Q105.41-29.98 105.53-30.52 105.65-31.05 105.65-31.54L105.65-31.54Q105.61-31.69 105.53-31.88 105.46-32.08 105.56-32.18L105.56-32.18Q105.41-32.32 105.29-32.47 105.17-32.62 105.02-32.71L105.02-32.71Q104.68-33.35 104.41-34.01 104.14-34.67 104.43-35.35L104.43-35.35Q104.38-35.94 104.6-36.11 104.82-36.28 104.92-36.52L104.92-36.52ZM134.56-31.1L134.56-31.1Q134.8-31.2 134.9-31.1 135-31.01 135.19-30.96L135.19-30.96Q135.53-30.42 135.44-30.13 135.34-29.83 135.14-29.59L135.14-29.59Q134.9-29.49 134.78-29.35 134.66-29.2 134.51-29.05L134.51-29.05Q133.97-28.71 133.34-28.96L133.34-28.96Q132.75-29.44 133.14-30.08L133.14-30.08Q133.87-30.96 134.56-31.1ZM140.86-29.15L140.86-29.15Q140.76-29.3 140.73-29.66 140.71-30.03 140.86-30.27L140.86-30.27Q141.54-30.47 141.71-30.3 141.88-30.13 142.13-29.98L142.13-29.98Q142.13-29.44 141.71-29.25 141.3-29.05 140.86-29.15ZM143.25-29.39L143.25-29.39Q143.84-29.05 143.93-28.88 144.03-28.71 144.08-28.47L144.08-28.47Q144.23-27.78 144.03-27.44L144.03-27.44Q143.79-27.34 143.49-27.15 143.2-26.95 142.86-27L142.86-27Q142.42-26.9 142.27-27.15 142.13-27.39 142.08-27.64L142.08-27.64Q142.03-28.27 142.25-28.37 142.47-28.47 142.37-28.71L142.37-28.71Q142.57-28.91 142.71-29.13 142.86-29.35 143.25-29.39ZM130.65-11.91L130.51-11.96Q130.46-12.5 130.55-12.67 130.65-12.84 130.6-13.09L130.6-13.09Q131.29-13.43 131.58-13.33 131.87-13.23 132.07-12.99 132.26-12.74 132.29-12.43 132.31-12.11 132.12-11.82L132.12-11.82Q132.02-11.67 131.9-11.6 131.77-11.52 131.68-11.33L131.68-11.33Q130.94-11.18 130.82-11.43 130.7-11.67 130.65-11.91L130.65-11.91ZM135.68-10.55L135.68-10.55Q135.73-9.81 134.85-9.81L134.85-9.81Q134.51-10.21 134.53-10.28 134.56-10.35 134.56-10.5L134.56-10.5Q135-10.79 135.24-10.72 135.49-10.64 135.68-10.55ZM130.8-25.44L130.8-25.44Q131.58-25.68 131.8-25.95 132.02-26.22 132.36-26.22L132.36-26.22Q132.8-26.51 132.82-26.46 132.85-26.42 132.9-26.46L132.9-26.46Q133.34-26.76 133.56-26.78 133.78-26.81 133.97-26.9L133.97-26.9Q134.51-27.1 134.58-27.08 134.66-27.05 134.75-27.1L134.75-27.1Q135.44-27.44 135.95-27.37 136.46-27.29 136.95-27.44L136.95-27.44Q137.29-27.34 137.71-27.34 138.12-27.34 138.54-27.32 138.95-27.29 139.37-27.22 139.78-27.15 140.08-26.9L140.08-26.9Q140.51-26.9 140.76-26.56L140.76-26.56Q141.25-26.27 141.25-26.22L141.25-26.22Q141.78-25.83 142.1-25.24 142.42-24.66 142.81-24.17L142.81-24.17Q143.15-23.63 143.25-23.19 143.35-22.75 143.59-22.46L143.59-22.46Q143.49-21.53 143.32-20.7 143.15-19.87 143.15-18.95L143.15-18.95Q143.15-18.55 143.2-18.09 143.25-17.63 143.2-17.19L143.2-17.19Q143.15-17.04 143.1-16.92 143.05-16.8 143.01-16.65L143.01-16.65Q142.81-16.11 142.61-15.55 142.42-14.99 142.18-14.45L142.18-14.45Q141.69-14.06 141.52-13.84 141.34-13.62 141.1-13.48L141.1-13.48Q140.81-12.94 140.25-12.62 139.68-12.3 139-12.21L139-12.21Q138.76-12.01 138.54-12.06 138.32-12.11 138.12-11.87L138.12-11.87Q137.78-11.91 137.51-11.77 137.24-11.62 136.95-11.87L136.95-11.87Q136.56-11.91 136.24-12.08 135.93-12.26 135.68-12.21L135.68-12.21Q135.53-12.3 135.41-12.38 135.29-12.45 135.05-12.45L135.05-12.45Q134.61-12.74 134.34-13.01 134.07-13.28 133.83-13.62L133.83-13.62Q133.48-14.45 133.24-14.79 133-15.14 132.95-15.53L132.95-15.53Q132.95-15.82 132.92-16.06 132.9-16.31 132.95-16.55L132.95-16.55Q132.85-16.89 132.9-17.26 132.95-17.63 133.09-17.99 133.24-18.36 133.43-18.7 133.63-19.04 133.73-19.34L133.73-19.34Q133.68-19.78 134.02-20 134.36-20.21 134.7-20.41L134.7-20.41Q134.95-20.51 135.36-20.65 135.78-20.8 136.12-20.56L136.12-20.56Q136.41-20.41 136.66-20.31L136.66-20.31Q136.95-19.87 136.88-19.29 136.8-18.7 136.71-18.31L136.71-18.31Q136.8-17.77 136.8-17.19 136.8-16.6 137.29-16.41L137.29-16.41Q137.44-16.36 137.59-16.38 137.73-16.41 137.83-16.26L137.83-16.26Q138.07-16.41 138.27-16.46 138.46-16.5 138.61-16.6L138.61-16.6Q138.9-16.85 138.95-17.19 139-17.53 139.25-17.87L139.25-17.87Q139.39-18.46 139.61-18.85 139.83-19.24 139.83-19.73L139.83-19.73Q139.83-19.97 139.76-20.19 139.68-20.41 139.68-20.65L139.68-20.65Q139.44-21 139.34-21.34 139.25-21.68 139.15-22.02L139.15-22.02Q138.71-22.36 138.02-22.61 137.34-22.85 136.8-23.24L136.8-23.24Q136.27-23.19 135.61-23.07 134.95-22.95 134.41-22.71L134.41-22.71Q134.17-22.46 133.83-22.31 133.48-22.17 133.09-22.02L133.09-22.02Q132.85-21.78 132.68-21.56 132.51-21.34 132.21-21.24L132.21-21.24Q131.68-20.65 131.38-20.36 131.09-20.07 130.85-19.68L130.85-19.68Q130.75-19.38 130.68-19.12 130.6-18.85 130.51-18.6L130.51-18.6Q130.46-18.26 130.46-17.97 130.46-17.68 130.36-17.29L130.36-17.29Q130.6-16.85 130.36-16.41L130.36-16.41Q130.16-15.48 129.99-14.99 129.82-14.5 129.72-14.01L129.72-14.01Q129.63-13.43 129.58-13.33 129.53-13.23 129.53-13.13L129.53-13.13Q129.48-12.74 129.58-12.35 129.68-11.96 129.72-11.57L129.72-11.57 129.72-10.79Q130.02-10.3 130.11-9.64 130.21-8.98 130.46-8.4L130.46-8.4Q130.46-7.76 130.6-7.5 130.75-7.23 130.7-6.69L130.7-6.69Q130.8-6.35 130.82-5.93 130.85-5.52 130.94-5.08L130.94-5.08Q131.29-4.2 130.87-3.71 130.46-3.22 130.11-2.69L130.11-2.69Q129.87-2.59 129.65-2.51 129.43-2.44 129.24-2.25L129.24-2.25Q128.84-2.29 128.65-2.1L128.65-2.1Q128.31-2.15 128.14-2.1 127.97-2.05 127.72-2L127.72-2Q127.58-2.05 127.43-2.12 127.28-2.2 127.09-2.2L127.09-2.2Q126.6-2.2 126.38-2.34 126.16-2.49 126.01-2.59L126.01-2.59Q125.62-2.59 125.38-2.83L125.38-2.83Q125.04-3.13 124.72-3.34 124.4-3.56 124.26-3.91L124.26-3.91Q124.21-4.25 124.13-4.49 124.06-4.74 124.01-4.98L124.01-4.98Q124.06-5.57 124.13-6.1 124.21-6.64 124.35-6.88L124.35-6.88Q124.6-7.18 124.62-7.3 124.65-7.42 124.74-7.47L124.74-7.47Q124.94-8.01 125.13-8.62 125.33-9.23 125.48-9.77L125.48-9.77Q125.52-9.96 125.6-10.11 125.67-10.25 125.67-10.4L125.67-10.4Q125.67-10.55 125.62-10.69 125.57-10.84 125.62-10.94L125.62-10.94Q125.67-11.18 125.74-11.4 125.82-11.62 125.82-11.87L125.82-11.87Q125.82-12.3 125.87-12.5L125.87-12.5Q125.87-12.7 125.82-12.87 125.77-13.04 125.72-13.28L125.72-13.28Q125.62-13.62 125.6-13.87 125.57-14.11 125.48-14.4L125.48-14.4Q125.48-15.04 125.35-15.5 125.23-15.97 125.33-16.26L125.33-16.26Q125.04-17.04 125.06-17.6 125.09-18.16 124.84-18.46L124.84-18.46Q124.74-18.99 124.72-19.43 124.69-19.87 124.79-20.31L124.79-20.31Q124.69-20.61 124.72-20.95 124.74-21.29 124.65-21.63L124.65-21.63Q124.55-22.46 124.55-23.14 124.55-23.83 124.21-24.27L124.21-24.27Q123.96-24.95 123.67-25.29 123.38-25.63 123.13-25.78L123.13-25.78Q123.08-26.03 122.81-26.29 122.55-26.56 122.5-26.81L122.5-26.81Q122.45-27.29 122.89-27.73L122.89-27.73Q123.13-28.52 123.35-29.03 123.57-29.54 123.82-30.08L123.82-30.08Q124.35-30.22 125.04-30.32 125.72-30.42 126.4-30.32L126.4-30.32Q127.09-30.47 127.75-30.64 128.41-30.81 128.94-30.76L128.94-30.76Q129.33-30.76 129.6-30.44 129.87-30.13 130.26-29.98L130.26-29.98Q130.51-29.59 130.63-29.25 130.75-28.91 130.65-28.56L130.65-28.56Q130.9-27.88 130.85-27.05 130.8-26.22 130.8-25.44ZM150.03-32.18L150.03-32.18Q149.99-31.88 150.13-31.74 150.28-31.59 150.23-31.3L150.23-31.3Q149.69-31.1 149.67-31.1 149.64-31.1 149.59-31.05L149.59-31.05Q149.11-31.1 148.96-31.1 148.81-31.1 148.72-31.35L148.72-31.35Q149.01-31.88 149.33-32.13 149.64-32.37 150.03-32.18ZM147.93-30.71L147.93-30.71Q148.18-30.62 148.28-30.42 148.37-30.22 148.47-29.98L148.47-29.98Q148.52-29.35 148.11-29.1 147.69-28.86 147.3-28.47L147.3-28.47Q147.15-28.52 147.03-28.47 146.91-28.42 146.66-28.47L146.66-28.47Q146.52-28.61 146.37-28.96L146.37-28.96Q146.42-29.59 146.47-29.88 146.52-30.18 146.62-30.42L146.62-30.42Q147.15-30.66 147.42-30.69 147.69-30.71 147.93-30.71ZM154.62-8.69L154.62-8.69Q154.97-8.89 155.26-9.08 155.55-9.28 155.94-9.52L155.94-9.52Q156.04-9.77 156.16-9.89 156.28-10.01 156.43-10.16L156.43-10.16Q156.63-10.79 156.58-11.13 156.53-11.47 156.63-11.87L156.63-11.87Q157.21-12.26 157.48-12.4 157.75-12.55 158.04-12.45L158.04-12.45Q158.24-12.55 158.46-12.57 158.68-12.6 158.77-12.5L158.77-12.5Q159.41-12.79 160.09-12.74L160.09-12.74Q160.29-12.7 160.41-12.6 160.53-12.5 160.68-12.4L160.68-12.4Q160.92-12.3 161.19-12.26 161.46-12.21 161.65-12.06L161.65-12.06Q161.95-11.77 162-11.62L162-11.62Q162.39-11.08 162.36-10.91 162.34-10.74 162.49-10.6L162.49-10.6Q162.39-10.21 162.44-10.01 162.49-9.81 162.44-9.42L162.44-9.42Q162.44-8.79 162.19-8.45L162.19-8.45Q161.7-8.01 161.61-7.96 161.51-7.91 161.41-7.81L161.41-7.81Q161.12-7.47 160.92-7.4 160.73-7.32 160.58-7.13L160.58-7.13Q160.43-7.03 160.36-6.91 160.29-6.79 160.14-6.69L160.14-6.69Q160.09-6.54 159.99-6.42 159.9-6.3 159.8-6.15L159.8-6.15Q159.8-5.86 159.65-5.66 159.51-5.47 159.29-5.32 159.07-5.18 158.85-5 158.63-4.83 158.53-4.54L158.53-4.54Q158.29-4.54 158.11-4.32 157.94-4.1 157.7-4.1L157.7-4.1Q156.92-3.66 156.58-3.49 156.24-3.32 155.8-3.22L155.8-3.22Q155.31-3.03 155.06-3.15 154.82-3.27 154.53-3.27L154.53-3.27Q154.28-3.32 154.04-3.25 153.79-3.17 153.55-3.17L153.55-3.17Q152.87-3.22 152.67-3.37 152.48-3.52 152.23-3.61L152.23-3.61Q151.94-3.61 151.86-3.69 151.79-3.76 151.69-3.76L151.69-3.76Q150.91-3.86 150.67-4.2 150.42-4.54 150.03-4.69L150.03-4.69Q149.55-5.37 148.96-5.93 148.37-6.49 148.08-7.32L148.08-7.32Q147.89-7.52 147.79-7.76 147.69-8.01 147.59-8.25L147.59-8.25Q147.45-8.4 147.3-8.74L147.3-8.74Q147.2-9.08 146.98-9.4 146.76-9.72 146.66-10.06L146.66-10.06Q146.62-10.21 146.64-10.38 146.66-10.55 146.52-10.64L146.52-10.64Q146.47-10.99 146.42-11.43 146.37-11.87 146.27-12.16L146.27-12.16Q146.27-12.55 146.32-12.94 146.37-13.33 146.32-13.77L146.32-13.77Q146.32-14.21 146.23-14.65 146.13-15.09 146.13-15.48L146.13-15.48Q146.13-15.63 146.18-15.77 146.23-15.92 146.23-16.02L146.23-16.02Q146.23-16.5 146.4-17.11 146.57-17.72 146.81-18.26L146.81-18.26Q146.81-18.46 146.76-18.65 146.71-18.85 146.81-18.99L146.81-18.99Q146.57-19.38 146.76-19.97L146.76-19.97Q146.66-20.36 146.69-20.65 146.71-20.95 146.76-21.34L146.76-21.34Q146.66-21.48 146.66-21.92L146.66-21.92Q146.71-22.75 146.81-23.66 146.91-24.56 147.15-25.24L147.15-25.24Q147.15-25.54 147.32-25.76 147.49-25.98 147.69-26.32L147.69-26.32Q147.89-26.71 147.98-26.81 148.08-26.9 148.13-27L148.13-27Q148.28-27.29 148.37-27.37 148.47-27.44 148.47-27.59L148.47-27.59Q149.2-28.47 150.08-28.86L150.08-28.86Q150.62-29.2 150.86-29.25 151.11-29.3 151.35-29.39L151.35-29.39Q151.55-29.49 151.86-29.59 152.18-29.69 152.43-29.59L152.43-29.59Q152.72-29.74 153.16-29.86 153.6-29.98 153.94-29.98L153.94-29.98Q154.23-30.22 154.6-30.22 154.97-30.22 155.36-30.13L155.36-30.13Q155.8-29.98 155.89-30 155.99-30.03 156.09-30.03L156.09-30.03Q156.43-30.03 156.72-29.88L156.72-29.88Q157.26-29.88 157.85-29.74 158.43-29.59 158.82-29.35L158.82-29.35Q158.92-29.1 159.16-28.98 159.41-28.86 159.51-28.61L159.51-28.61Q159.75-28.52 159.97-28.34 160.19-28.17 160.29-27.88L160.29-27.88Q160.82-27.64 161.07-27.12 161.31-26.61 161.61-26.22L161.61-26.22Q161.56-25.98 161.65-25.81 161.75-25.63 161.75-25.34L161.75-25.34Q161.9-25.15 162.05-25 162.19-24.85 162.34-24.66L162.34-24.66Q162.34-24.22 162.46-23.83 162.58-23.44 162.58-23.05L162.58-23.05Q162.78-22.36 162.73-21.44L162.73-21.44Q162.73-21.14 162.63-20.83 162.53-20.51 162.53-20.17L162.53-20.17Q162.49-19.78 162.63-19.41 162.78-19.04 162.58-18.65L162.58-18.65Q162.73-17.82 162.53-17.26 162.34-16.7 162.24-16.06L162.24-16.06Q162.14-15.92 162.12-15.72 162.09-15.53 161.9-15.43L161.9-15.43Q161.8-15.28 161.61-15.19 161.41-15.09 161.17-14.99L161.17-14.99Q160.43-14.6 159.75-14.5L159.75-14.5Q159.46-14.4 159.12-14.43 158.77-14.45 158.38-14.5L158.38-14.5Q157.75-14.65 157.43-14.55 157.11-14.45 156.82-14.4L156.82-14.4Q156.48-14.31 156.19-14.26 155.89-14.21 155.5-14.31L155.5-14.31Q155.01-14.06 154.38-14.21L154.38-14.21Q153.74-14.21 153.43-14.28 153.11-14.36 152.96-14.5L152.96-14.5Q152.48-14.6 151.91-14.65 151.35-14.7 150.96-14.7L150.96-14.7Q150.57-14.5 150.52-13.96 150.47-13.43 150.38-12.89L150.38-12.89Q150.33-12.65 150.3-12.33 150.28-12.01 150.38-11.72L150.38-11.72Q150.62-11.23 150.72-10.62 150.82-10.01 151.01-9.47L151.01-9.47Q151.25-9.28 151.35-8.89L151.35-8.89Q151.84-8.74 152.33-8.74L152.33-8.74Q152.72-8.98 153.11-8.79 153.5-8.59 153.89-8.84L153.89-8.84Q153.99-8.69 154.23-8.74 154.48-8.79 154.62-8.69ZM158.14-23.49L158.04-23.73Q157.7-24.41 157.43-25.05 157.16-25.68 156.38-25.83L156.38-25.83Q155.99-26.12 155.89-26.12L155.89-26.12Q155.5-26.22 155.14-26.32 154.77-26.42 154.38-26.51L154.38-26.51Q153.79-26.61 153.65-26.44 153.5-26.27 153.21-26.27L153.21-26.27Q153.11-26.17 153.01-26.03 152.91-25.88 152.67-25.88L152.67-25.88Q152.28-25.39 152.21-25.1 152.13-24.8 152.04-24.51L152.04-24.51Q152.18-24.37 152.13-24.15 152.08-23.93 152.08-23.68L152.08-23.68Q152.13-23.39 152.26-23.1 152.38-22.8 152.28-22.51L152.28-22.51Q152.43-22.31 152.38-22.02 152.33-21.73 152.43-21.48L152.43-21.48Q152.18-20.95 152.21-20.87 152.23-20.8 152.13-20.8L152.13-20.8Q152.23-20.36 151.96-20.04 151.69-19.73 151.6-19.24L151.6-19.24Q151.6-18.95 151.55-18.73 151.5-18.51 151.45-18.21L151.45-18.21Q151.79-18.07 152.16-17.94 152.52-17.82 152.77-17.58L152.77-17.58Q153.01-17.58 153.18-17.55 153.35-17.53 153.5-17.68L153.5-17.68Q153.99-17.72 154.53-17.68 155.06-17.63 155.6-17.55 156.14-17.48 156.65-17.46 157.16-17.43 157.65-17.53L157.65-17.53Q158.09-17.53 158.19-17.75 158.29-17.97 158.38-18.16L158.38-18.16Q158.63-18.41 158.68-18.7L158.68-18.7Q158.73-19.48 158.68-19.63L158.68-19.63Q158.68-20.36 158.7-20.68 158.73-21 158.68-21.24L158.68-21.24Q158.63-22.46 158.14-23.49L158.14-23.49ZM156.43-18.26L156.43-18.26Q156.24-18.36 156.16-18.53 156.09-18.7 155.99-18.8L155.99-18.8Q155.94-19.14 156.33-19.24L156.33-19.24Q156.43-19.43 156.58-19.58 156.72-19.73 156.82-19.97L156.82-19.97Q157.11-20.02 157.31-19.85 157.5-19.68 157.75-19.63L157.75-19.63Q158.14-19.19 157.85-18.77 157.55-18.36 157.11-18.26L157.11-18.26Q156.72-18.46 156.43-18.26ZM163.17-6.79L163.17-6.79Q163.32-6.69 163.27-6.54 163.22-6.4 163.17-6.2L163.17-6.2Q163.12-5.91 163.17-5.79 163.22-5.66 163.12-5.47L163.12-5.47Q163.07-5.37 162.92-5.22 162.78-5.08 162.73-4.98L162.73-4.98Q162.34-4.49 162.17-4.52 162-4.54 161.9-4.54L161.9-4.54Q161.51-4.35 161.02-4.42 160.53-4.49 160.58-4.83L160.58-4.83Q160.58-5.03 160.78-5.18 160.97-5.32 161.07-5.47L161.07-5.47Q161.22-5.66 161.24-5.83 161.26-6.01 161.36-6.15L161.36-6.15Q161.95-6.69 162.34-6.71 162.73-6.74 163.17-6.79ZM146.52-5.08L146.52-5.08Q146.66-5.18 146.71-5.32 146.76-5.47 146.86-5.57L146.86-5.57Q147.3-5.66 147.37-5.66 147.45-5.66 147.54-5.76L147.54-5.76Q147.79-5.66 147.96-5.54 148.13-5.42 148.42-5.37L148.42-5.37Q148.86-5.08 148.62-4.64 148.37-4.2 148.23-3.86L148.23-3.86Q147.3-3.71 146.47-4.1L146.47-4.1Q146.37-4.39 146.47-4.61 146.57-4.83 146.52-5.08ZM187.04-3.08L186.8-2.98Q186.7-2.64 186.38-2.56 186.07-2.49 185.92-2.25L185.92-2.25Q185.58-2.05 185.24-2.05 184.89-2.05 184.5-2L184.5-2Q184.06-2.1 183.97-2.25L183.97-2.25Q183.53-2.2 183.26-2.47 182.99-2.73 182.65-2.88L182.65-2.88Q182.55-3.03 182.45-3.22 182.36-3.42 182.11-3.37L182.11-3.37Q182.16-3.61 181.96-3.76 181.77-3.91 181.67-4.1L181.67-4.1Q181.43-4.15 181.28-4.32 181.13-4.49 180.89-4.49L180.89-4.49Q180.6-4.49 180.4-4.2 180.21-3.91 179.91-3.81L179.91-3.81Q179.82-3.71 179.69-3.61 179.57-3.52 179.52-3.37L179.52-3.37Q179.28-3.37 179.08-3.25 178.89-3.13 178.69-2.98L178.69-2.98Q177.86-3.13 177.25-2.81 176.64-2.49 175.86-2.54L175.86-2.54Q175.28-2.44 175.06-2.39 174.84-2.34 174.59-2.34L174.59-2.34Q174.05-2.29 173.71-2.49L173.71-2.49Q173.37-2.39 173.08-2.51 172.79-2.64 172.44-2.54L172.44-2.54Q172.2-2.69 172-2.56 171.81-2.44 171.52-2.49L171.52-2.49Q170.93-2.78 170.76-2.78 170.59-2.78 170.39-2.88L170.39-2.88Q170.3-2.98 170.15-3.13 170-3.27 169.71-3.27L169.71-3.27Q169.17-3.61 169.1-3.86 169.03-4.1 168.93-4.3L168.93-4.3Q168.68-4.74 168.71-4.91 168.73-5.08 168.68-5.27L168.68-5.27Q168.49-5.52 168.27-5.71 168.05-5.91 167.9-6.15L167.9-6.15Q167.8-6.49 167.78-6.69 167.76-6.88 167.71-7.13L167.71-7.13Q167.61-7.57 167.54-8.13 167.46-8.69 167.46-9.13L167.46-9.13Q167.51-9.57 167.46-9.72 167.41-9.86 167.51-9.96L167.51-9.96Q167.51-11.04 167.85-11.87L167.85-11.87Q167.9-12.21 167.93-12.55 167.95-12.89 168.2-13.04L168.2-13.04Q168.34-13.67 168.54-13.94 168.73-14.21 168.88-14.6L168.88-14.6Q169.22-14.94 169.25-14.97 169.27-14.99 169.27-15.04L169.27-15.04Q169.51-15.19 169.59-15.31 169.66-15.43 169.81-15.38L169.81-15.38Q170.2-15.92 170.66-16.24 171.13-16.55 171.66-16.85L171.66-16.85Q172.74-17.29 173.66-17.46 174.59-17.63 175.32-17.53L175.32-17.53Q175.52-17.72 176.06-17.75 176.59-17.77 176.89-17.58L176.89-17.58Q177.08-17.38 177.2-17.41 177.33-17.43 177.42-17.38L177.42-17.38Q177.57-17.33 177.74-17.21 177.91-17.09 178.16-17.04L178.16-17.04Q178.74-16.94 178.79-16.89 178.84-16.85 178.94-16.8L178.94-16.8Q179.43-16.65 179.96-16.7 180.5-16.75 180.74-17.14L180.74-17.14Q180.84-17.24 180.94-17.53 181.04-17.82 181.09-17.97L181.09-17.97Q181.13-18.12 181.09-18.33 181.04-18.55 180.99-18.7L180.99-18.7Q180.89-19.38 180.89-20.29 180.89-21.19 180.84-21.83L180.84-21.83Q180.74-22.9 180.5-24.02L180.5-24.02Q180.4-24.37 180.3-24.66 180.21-24.95 179.96-25.15L179.96-25.15Q179.72-25.98 179.33-26.56 178.94-27.15 178.4-27.59L178.4-27.59Q178.01-27.59 177.84-27.76 177.67-27.93 177.38-27.98L177.38-27.98Q176.69-28.17 176.23-28.05 175.76-27.93 175.37-27.98L175.37-27.98Q175.13-28.03 174.96-27.98 174.79-27.93 174.54-27.88L174.54-27.88Q174.1-27.98 173.84-27.86 173.57-27.73 173.32-27.64L173.32-27.64Q172.93-27.44 172.74-27.29L172.74-27.29Q172.39-27.15 172.1-27.03 171.81-26.9 171.56-26.66L171.56-26.66Q171.42-26.51 171.2-26.37 170.98-26.22 170.78-25.98L170.78-25.98Q170.64-25.83 170.47-25.59 170.3-25.34 170.15-25.1L170.15-25.1Q169.76-24.41 169.76-24.27 169.76-24.12 169.86-23.73L169.86-23.73Q169.95-23.63 170.03-23.51 170.1-23.39 170.15-23.24L170.15-23.24Q170.44-22.66 170.54-22.63 170.64-22.61 170.69-22.51L170.69-22.51Q170.88-22.61 171-22.53 171.13-22.46 171.32-22.46L171.32-22.46Q171.56-22.51 171.83-22.63 172.1-22.75 172.39-22.75L172.39-22.75Q172.44-23.14 172.39-23.51 172.35-23.88 172.44-24.17L172.44-24.17Q172.79-24.85 173.18-25.15L173.18-25.15Q173.62-25.63 174.3-25.78L174.3-25.78Q174.49-25.88 174.67-26 174.84-26.12 175.08-26.12L175.08-26.12Q175.57-25.83 175.74-25.85 175.91-25.88 176.06-25.78L176.06-25.78Q176.64-25.73 177.01-25.56 177.38-25.39 177.62-24.9L177.62-24.9Q177.72-24.66 177.74-24.39 177.77-24.12 178.01-23.93L178.01-23.93Q178.11-23.73 178.06-23.56 178.01-23.39 178.11-23.14L178.11-23.14Q178.11-22.9 178.21-22.68 178.3-22.46 178.21-22.22L178.21-22.22Q178.06-21.97 177.89-21.66 177.72-21.34 177.57-21.24L177.57-21.24Q177.52-20.95 177.33-20.75 177.13-20.56 176.94-20.36L176.94-20.36Q176.84-20.21 176.74-20.07 176.64-19.92 176.4-19.82L176.4-19.82Q175.71-19.53 175.52-19.48 175.32-19.43 175.18-19.34L175.18-19.34Q174.64-18.99 174.42-18.99 174.2-18.99 173.96-18.9L173.96-18.9Q173.37-18.7 173.22-18.75 173.08-18.8 172.98-18.75L172.98-18.75Q172.74-18.75 172.44-18.65 172.15-18.55 171.86-18.6L171.86-18.6Q171.37-18.7 171.32-18.68 171.27-18.65 171.22-18.65L171.22-18.65Q170.73-18.75 170.49-19.12 170.25-19.48 169.61-19.48L169.61-19.48Q169.07-19.82 168.73-19.95 168.39-20.07 168.24-20.41L168.24-20.41Q167.61-20.85 167.44-21.04 167.27-21.24 167.07-21.39L167.07-21.39Q166.88-21.88 166.63-22.31 166.39-22.75 166.34-23.29L166.34-23.29Q166.29-23.63 166.29-24.1 166.29-24.56 166.34-24.95L166.34-24.95Q166.44-25.59 166.61-25.83 166.78-26.07 166.88-26.42L166.88-26.42Q166.97-26.56 166.97-26.73 166.97-26.9 167.07-27.05L167.07-27.05Q167.32-27.49 167.56-27.64L167.56-27.64Q168-28.47 168.34-28.71 168.68-28.96 169.07-29.15L169.07-29.15Q169.86-29.49 170.32-29.71 170.78-29.93 171.37-29.98L171.37-29.98Q171.86-30.03 172.3-30.1 172.74-30.18 173.13-30.42L173.13-30.42Q173.86-30.52 174.47-30.52 175.08-30.52 175.67-30.62L175.67-30.62Q175.86-30.57 176.06-30.64 176.25-30.71 176.45-30.71L176.45-30.71Q176.98-30.62 177.35-30.64 177.72-30.66 178.16-30.62L178.16-30.62Q178.3-30.57 178.47-30.52 178.64-30.47 178.79-30.42L178.79-30.42Q179.23-30.32 179.69-30.2 180.16-30.08 180.5-29.83L180.5-29.83Q182.01-29.54 182.6-28.32L182.6-28.32Q182.7-27.88 182.8-27.71 182.89-27.54 182.94-27.29L182.94-27.29Q183.09-27.05 183.26-26.83 183.43-26.61 183.63-26.37L183.63-26.37Q183.92-25.83 184.06-25.39 184.21-24.95 184.46-24.51L184.46-24.51Q184.55-24.32 184.63-24.15 184.7-23.97 184.8-23.73L184.8-23.73Q184.99-23.29 184.97-23.24 184.94-23.19 184.94-23.14L184.94-23.14Q184.99-22.9 185.11-22.68 185.24-22.46 185.29-22.22L185.29-22.22Q185.19-21.88 185.31-21.53 185.43-21.19 185.33-20.95L185.33-20.95Q185.53-20.56 185.53-20.09 185.53-19.63 185.58-19.09L185.58-19.09Q185.68-18.95 185.63-18.8 185.58-18.65 185.58-18.51L185.58-18.51Q185.58-18.26 185.65-18.02 185.72-17.77 185.68-17.53L185.68-17.53Q185.63-17.19 185.68-17.07 185.72-16.94 185.72-16.8L185.72-16.8Q185.68-16.6 185.7-16.38 185.72-16.16 185.68-15.92L185.68-15.92Q185.63-15.63 185.58-15.36 185.53-15.09 185.48-14.84L185.48-14.84Q185.43-14.65 185.38-14.5 185.33-14.36 185.38-14.16L185.38-14.16Q185.48-13.53 185.29-13.09L185.29-13.09Q185.19-12.45 185.11-11.79 185.04-11.13 184.94-10.5L184.94-10.5Q185.04-10.06 185.02-9.69 184.99-9.33 184.94-8.79L184.94-8.79Q184.99-8.2 185.07-7.71 185.14-7.23 185.38-6.88L185.38-6.88Q186.16-6.74 186.46-6.64 186.75-6.54 186.85-6.3L186.85-6.3Q187.04-5.91 187.24-5.64 187.43-5.37 187.53-5.03L187.53-5.03Q187.63-4.79 187.58-4.69 187.53-4.59 187.48-4.35L187.48-4.35Q187.38-4.15 187.43-4.03 187.48-3.91 187.38-3.66L187.38-3.66Q187.19-3.52 187.17-3.34 187.14-3.17 187.04-3.08L187.04-3.08ZM172.49-12.21L172.49-12.21Q172.25-11.43 172.15-11.23L172.15-11.23Q172.2-10.64 172.15-10.35 172.1-10.06 172.05-9.81L172.05-9.81Q171.86-9.18 172-8.74L172-8.74Q172.05-8.5 172.15-8.15 172.25-7.81 172.35-7.71L172.35-7.71Q172.44-7.03 172.88-6.76 173.32-6.49 173.71-6.25L173.71-6.25Q174.69-6.1 175.15-6.37 175.62-6.64 176.15-6.59L176.15-6.59Q176.5-6.93 177.03-6.93L177.03-6.93Q177.57-7.32 177.62-7.35 177.67-7.37 177.77-7.42L177.77-7.42Q178.16-7.62 178.33-7.69 178.5-7.76 178.74-7.86L178.74-7.86Q178.99-7.96 179.3-8.2 179.62-8.45 179.72-8.64L179.72-8.64Q180.06-9.18 180.06-9.96L180.06-9.96Q180.06-10.21 180.13-10.35 180.21-10.5 180.21-10.74L180.21-10.74Q180.01-11.13 180.01-11.33L180.01-11.33Q180.06-11.72 180.01-11.82 179.96-11.91 179.91-12.01L179.91-12.01Q179.77-12.45 179.67-12.65 179.57-12.84 179.57-13.13L179.57-13.13Q179.18-13.72 178.96-13.79 178.74-13.87 178.5-13.96L178.5-13.96Q178.06-13.82 177.64-14.01 177.23-14.21 176.89-14.01L176.89-14.01Q175.91-14.01 175.13-13.6 174.35-13.18 173.52-12.94L173.52-12.94Q173.27-12.89 173.1-12.84 172.93-12.79 172.74-12.7L172.74-12.7Q172.74-12.5 172.64-12.4 172.54-12.3 172.49-12.21ZM186.46-28.86L186.46-28.86Q186.95-28.71 187.17-28.54 187.38-28.37 187.58-28.03L187.58-28.03Q187.78-27.69 187.8-27.29 187.82-26.9 187.58-26.66L187.58-26.66Q187.34-26.56 187.29-26.49 187.24-26.42 187.14-26.32L187.14-26.32Q186.75-25.93 186.31-26.15 185.87-26.37 185.43-26.51L185.43-26.51Q185.19-26.81 185.04-27.2 184.89-27.59 184.89-28.03L184.89-28.03Q185.09-28.27 185.26-28.49 185.43-28.71 185.82-28.66L185.82-28.66Q185.97-28.76 186.46-28.86ZM168.2-18.31L168.2-18.31Q168.24-17.97 168.42-17.72 168.59-17.48 168.49-17.09L168.49-17.09Q167.95-16.5 167.51-16.5L167.51-16.5Q166.78-16.85 166.51-17.26 166.24-17.68 166.49-18.26L166.49-18.26Q166.63-18.41 166.93-18.6L166.93-18.6Q167.32-18.75 167.63-18.58 167.95-18.41 168.2-18.31ZM187.19-12.21L187.19-12.21Q187.38-12.26 187.46-12.33 187.53-12.4 187.73-12.3L187.73-12.3Q187.97-12.21 188.04-11.87 188.12-11.52 188.02-11.23L188.02-11.23Q187.87-11.13 187.75-11.08 187.63-11.04 187.48-11.04L187.48-11.04Q187.14-11.13 187.09-11.52 187.04-11.91 187.19-12.21ZM186.95-7.52L186.85-7.71Q186.46-8.06 186.53-8.45 186.6-8.84 186.6-9.23L186.6-9.23Q186.8-9.57 186.97-9.59 187.14-9.62 187.29-9.72L187.29-9.72Q187.73-9.72 188.07-9.64 188.41-9.57 188.46-9.23L188.46-9.23Q188.7-8.84 188.58-8.62 188.46-8.4 188.41-8.15L188.41-8.15Q188.17-7.91 187.7-7.71 187.24-7.52 186.95-7.52L186.95-7.52ZM166.97-3.42L166.97-3.42Q167.46-3.52 167.83-3.32 168.2-3.13 168.1-2.64L168.1-2.64Q168.1-2.25 167.88-2.15 167.66-2.05 167.41-1.86L167.41-1.86Q166.88-1.95 166.73-2.51 166.58-3.08 166.97-3.42ZM197.15-29.39L197.15-29.39Q196.66-29.59 196.61-29.69 196.56-29.79 196.46-29.88L196.46-29.88Q195.78-30.76 196.12-31.25L196.12-31.25Q196.86-31.64 197.2-31.4 197.54-31.15 197.64-30.86L197.64-30.86Q197.83-30.32 197.61-30 197.39-29.69 197.15-29.39ZM197.98-28.27L197.98-28.27Q198.12-28.52 198.17-28.61 198.22-28.71 198.42-28.71L198.42-28.71Q198.56-29 199-29L199-29Q199.1-29.1 199.32-29.08 199.54-29.05 199.59-28.91L199.59-28.91Q199.88-28.76 200.13-28.44 200.37-28.13 200.22-27.64L200.22-27.64Q199.98-27.15 199.78-26.9 199.59-26.66 199.25-26.46L199.25-26.46Q199.1-26.51 198.88-26.51 198.66-26.51 198.56-26.56L198.56-26.56Q198.37-26.95 198.12-27.32 197.88-27.69 197.98-28.27ZM190.95-21.92L190.95-21.92Q190.17-21.78 190.02-22.05 189.87-22.31 189.63-22.46L189.63-22.46Q189.58-22.85 189.87-23.07 190.17-23.29 190.51-23.34 190.85-23.39 191.14-23.24 191.44-23.1 191.44-22.75L191.44-22.75Q191.44-22.51 191.29-22.29 191.14-22.07 190.95-21.92ZM212.53-17.38L212.53-17.38Q212.63-17.58 212.72-17.8 212.82-18.02 213.07-18.12L213.07-18.12Q213.36-18.31 213.92-18.26 214.48-18.21 214.73-17.97L214.73-17.97Q214.82-17.87 214.95-17.68 215.07-17.48 215.12-17.29L215.12-17.29Q215.21-16.89 215.21-16.65L215.21-16.65Q215.17-16.41 214.82-16.11 214.48-15.82 214.24-15.82L214.24-15.82Q213.99-15.77 213.73-15.89 213.46-16.02 213.36-16.16L213.36-16.16Q213.26-16.31 213.21-16.48 213.16-16.65 213.07-16.75L213.07-16.75Q212.87-16.94 212.7-17.04 212.53-17.14 212.53-17.38ZM214.77-14.36L214.77-14.36Q214.58-13.57 213.7-13.87L213.7-13.87Q213.6-14.5 213.92-14.72 214.24-14.94 214.48-14.84L214.48-14.84Q214.58-14.75 214.63-14.62 214.68-14.5 214.77-14.36ZM220.78-4.59L220.78-4.59Q220.68-4.83 220.46-5.1 220.24-5.37 220.24-5.66L220.24-5.66Q220.29-5.86 220.41-5.93 220.54-6.01 220.59-6.2L220.59-6.2Q220.83-6.4 221.07-6.4 221.32-6.4 221.56-6.59L221.56-6.59Q222.2-6.3 222.27-6.05 222.34-5.81 222.44-5.62L222.44-5.62Q222.39-5.47 222.42-5.3 222.44-5.13 222.39-5.03L222.39-5.03Q222.25-4.54 221.76-4.54 221.27-4.54 220.78-4.59ZM195.49-1.46L195.49-1.46Q195.63-1.56 195.76-1.68 195.88-1.81 195.98-2.05L195.98-2.05Q196.22-2.2 196.49-2.32 196.76-2.44 197-2.69L197-2.69Q197.15-2.83 197.32-2.93 197.49-3.03 197.73-2.88L197.73-2.88Q197.93-2.64 198.08-2.32 198.22-2 198.12-1.61L198.12-1.61Q197.93-1.22 197.54-1 197.15-0.78 196.71-0.59L196.71-0.59Q196.56-0.34 196.24-0.34 195.93-0.34 195.68-0.44L195.68-0.44Q195.54-0.63 195.51-0.93 195.49-1.22 195.49-1.46ZM196.76-23.68L196.61-23.34Q196.61-23.1 196.56-22.75 196.51-22.41 196.46-22.12L196.46-22.12Q196.42-22.02 196.39-21.66 196.37-21.29 196.46-21.24L196.46-21.24Q196.76-21.44 197-22.07L197-22.07Q197.15-22.46 197.27-22.78 197.39-23.1 197.73-23.34L197.73-23.34Q197.93-23.63 198.2-23.93 198.47-24.22 198.71-24.51L198.71-24.51Q199-24.61 199.25-24.78 199.49-24.95 199.88-25L199.88-25Q200.42-25.29 200.69-25.44 200.96-25.59 201.25-25.73L201.25-25.73Q201.93-25.83 202.62-25.68 203.3-25.54 203.84-25.29L203.84-25.29 204.72-25.29Q205.25-25.1 205.45-24.95L205.45-24.95Q205.89-24.85 206.18-24.85 206.47-24.85 206.77-24.66L206.77-24.66Q206.91-24.56 206.94-24.41 206.96-24.27 207.06-24.07L207.06-24.07Q207.16-23.83 207.23-23.73 207.3-23.63 207.3-23.49L207.3-23.49Q207.35-23.39 207.4-23.22 207.45-23.05 207.5-22.95L207.5-22.95Q207.6-22.61 207.74-22.36 207.89-22.12 208.13-22.07L208.13-22.07Q208.23-22.07 208.38-22.14 208.52-22.22 208.72-22.27L208.72-22.27Q209.21-22.75 209.75-23.12 210.28-23.49 210.82-24.02L210.82-24.02Q211.36-24.46 211.53-24.44 211.7-24.41 211.75-24.66L211.75-24.66Q212.24-24.76 212.68-24.95 213.11-25.15 213.55-25.29L213.55-25.29Q213.8-25.2 213.94-25.24 214.09-25.29 214.34-25.2L214.34-25.2Q215.07-25.15 215.73-25.34 216.39-25.54 216.78-25.1L216.78-25.1Q216.92-25.1 217.07-25.02 217.22-24.95 217.41-24.95L217.41-24.95Q217.56-24.85 217.73-24.83 217.9-24.8 217.95-24.66L217.95-24.66Q218.44-24.51 218.8-24.37 219.17-24.22 219.51-24.05 219.85-23.88 220.1-23.58 220.34-23.29 220.34-22.8L220.34-22.8Q220.44-22.61 220.51-22.36 220.59-22.12 220.68-21.92L220.68-21.92Q220.88-21.24 221.07-20.83 221.27-20.41 221.07-19.87L221.07-19.87Q221.17-19.14 221.32-18.58 221.46-18.02 221.27-17.33L221.27-17.33Q220.98-16.46 220.85-15.82 220.73-15.19 220.49-14.65L220.49-14.65Q220.19-14.21 220.19-13.67 220.19-13.13 220.1-12.55L220.1-12.55Q220.05-12.35 219.98-12.23 219.9-12.11 219.8-11.91L219.8-11.91Q219.71-11.67 219.71-11.33 219.71-10.99 219.61-10.74L219.61-10.74Q219.51-10.35 219.36-9.94 219.22-9.52 219.32-9.08L219.32-9.08Q219.36-8.79 219.44-8.62 219.51-8.45 219.46-8.2L219.46-8.2Q219.46-7.96 219.36-7.67 219.27-7.37 219.41-6.98L219.41-6.98Q219.22-6.64 219.24-6.13 219.27-5.62 219.07-5.27L219.07-5.27Q219.17-4.74 219.29-4.57 219.41-4.39 219.51-4.2L219.51-4.2Q219.51-3.56 219.85-2.98L219.85-2.98Q220.34-2.98 220.73-3.17L220.73-3.17Q220.88-3.17 221-3.05 221.12-2.93 221.27-3.03L221.27-3.03Q221.46-2.88 221.66-2.93 221.86-2.98 222-3.08 222.15-3.17 222.32-3.3 222.49-3.42 222.69-3.37L222.69-3.37Q223.12-3.08 223.32-2.86 223.52-2.64 223.66-2.39L223.66-2.39Q224-1.76 223.93-1.51 223.86-1.27 223.95-0.98L223.95-0.98Q223.86-0.63 223.86-0.22 223.86 0.2 223.61 0.49L223.61 0.49Q223.17 0.78 222.88 1.17L222.88 1.17Q222.73 1.32 222.34 1.51L222.34 1.51Q221.95 1.71 221.59 1.83 221.22 1.95 220.83 2.1L220.83 2.1Q220.63 2.2 220.34 2.29 220.05 2.39 219.71 2.29L219.71 2.29Q219.27 2 219.29 1.98 219.32 1.95 219.27 1.9L219.27 1.9Q218.78 1.66 218.66 1.61 218.53 1.56 218.49 1.42L218.49 1.42Q218.24 1.46 217.92 1.42 217.61 1.37 217.51 1.12L217.51 1.12Q216.97 1.03 216.48 0.83 216 0.63 215.75 0.2L215.75 0.2Q215.56-0.2 215.53-0.73 215.51-1.27 215.31-1.71L215.31-1.71Q215.12-2.05 214.87-2.44 214.63-2.83 214.58-3.32L214.58-3.32Q214.53-3.76 214.51-4.03 214.48-4.3 214.68-4.49L214.68-4.49Q214.73-4.88 214.75-5.27 214.77-5.66 214.97-6.05L214.97-6.05Q215.17-6.64 215.09-6.96 215.02-7.28 215.07-7.62L215.07-7.62Q215.12-8.01 215.17-8.4 215.21-8.79 215.31-9.13L215.31-9.13Q215.36-9.28 215.36-9.47 215.36-9.67 215.46-9.81L215.46-9.81Q215.41-10.21 215.51-10.69 215.61-11.18 215.7-11.67L215.7-11.67Q215.56-12.6 215.9-13.57L215.9-13.57Q215.9-13.87 215.92-14.04 215.95-14.21 216-14.4L216-14.4Q216.09-14.79 216.19-15.16 216.29-15.53 216.39-15.92L216.39-15.92Q216.44-16.16 216.39-16.38 216.34-16.6 216.34-16.85L216.34-16.85Q216.29-17.09 216.34-17.33 216.39-17.58 216.39-17.82L216.39-17.82Q216.34-17.97 216.26-18.09 216.19-18.21 216.24-18.36L216.24-18.36Q216.09-18.55 216.07-18.77 216.04-18.99 215.95-19.24L215.95-19.24Q215.85-19.48 215.63-19.53 215.41-19.58 215.26-19.73L215.26-19.73Q214.92-19.87 214.58-19.8 214.24-19.73 213.85-19.82L213.85-19.82Q213.26-19.63 212.85-19.73 212.43-19.82 212.19-19.63L212.19-19.63Q211.36-19.34 210.62-19.19L210.62-19.19Q210.19-18.9 209.99-18.43 209.79-17.97 209.7-17.29L209.7-17.29Q209.5-16.55 209.43-16.06 209.36-15.58 209.4-15.09L209.4-15.09Q209.4-14.79 209.26-14.55 209.11-14.31 209.06-14.01L209.06-14.01Q208.72-13.57 208.72-13.04L208.72-13.04Q208.77-12.89 208.82-12.77 208.87-12.65 208.87-12.5L208.87-12.5Q208.92-12.3 208.87-12.13 208.82-11.96 208.82-11.77L208.82-11.77Q208.82-11.13 208.84-10.55 208.87-9.96 209.01-9.47L209.01-9.47Q209.06-9.23 209.14-8.91 209.21-8.59 209.21-8.3L209.21-8.3Q209.45-8.06 209.65-7.69 209.84-7.32 210.14-6.98L210.14-6.98Q210.38-6.69 210.62-6.52 210.87-6.35 210.92-5.86L210.92-5.86Q210.92-5.47 210.92-5.03 210.92-4.59 210.87-4.2L210.87-4.2Q210.82-3.86 210.65-3.61 210.48-3.37 210.38-3.03L210.38-3.03Q210.28-2.83 210.09-2.71 209.89-2.59 209.7-2.39L209.7-2.39Q209.01-1.9 208.7-1.78 208.38-1.66 207.99-1.76L207.99-1.76Q207.84-1.66 207.65-1.68 207.45-1.71 207.35-1.61L207.35-1.61Q207.06-1.56 206.84-1.68 206.62-1.81 206.28-1.9L206.28-1.9Q206.08-1.95 205.89-1.93 205.69-1.9 205.55-1.95L205.55-1.95Q205.06-2.34 204.81-2.44 204.57-2.54 204.42-2.73L204.42-2.73Q204.33-2.93 204.13-3.05 203.94-3.17 203.89-3.42L203.89-3.42Q204.08-4.25 203.94-4.61 203.79-4.98 203.94-5.37L203.94-5.37Q203.69-5.76 203.98-6.2L203.98-6.2Q203.89-6.45 203.98-6.57 204.08-6.69 204.18-6.93L204.18-6.93Q204.23-7.08 204.23-7.28 204.23-7.47 204.28-7.57L204.28-7.57Q204.37-7.96 204.4-8.28 204.42-8.59 204.67-8.94L204.67-8.94Q204.62-9.33 204.62-9.69 204.62-10.06 204.62-10.45L204.62-10.45Q204.77-11.18 204.74-11.47 204.72-11.77 204.72-12.01L204.72-12.01Q204.81-12.55 204.77-13.16 204.72-13.77 204.96-14.31L204.96-14.31Q204.96-14.55 204.96-14.84 204.96-15.14 205.06-15.33L205.06-15.33Q204.96-16.41 205.2-17.48L205.2-17.48Q205.45-18.12 205.38-18.6 205.3-19.09 205.01-19.38L205.01-19.38Q204.72-19.73 204.23-19.8 203.74-19.87 203.54-20.31L203.54-20.31Q202.81-20.51 202.47-20.41 202.13-20.31 201.93-20.46L201.93-20.46Q201.01-20.02 200.49-19.38 199.98-18.75 199.59-18.07L199.59-18.07Q199.15-17.38 198.76-16.99L198.76-16.99Q198.66-16.75 198.54-16.46 198.42-16.16 198.32-15.87L198.32-15.87Q198.37-15.63 198.32-15.36 198.27-15.09 198.12-14.99L198.12-14.99Q198.12-14.6 198.03-14.21L198.03-14.21Q197.98-14.01 197.93-13.92 197.88-13.82 197.78-13.67L197.78-13.67Q197.73-13.09 197.66-12.92 197.59-12.74 197.49-12.5L197.49-12.5Q197.39-12.16 197.27-11.84 197.15-11.52 197.05-11.13L197.05-11.13Q197.05-10.89 196.95-10.67 196.86-10.45 196.81-10.21L196.81-10.21Q196.71-9.86 196.78-9.5 196.86-9.13 196.61-8.89L196.61-8.89Q196.61-8.54 196.54-8.35 196.46-8.15 196.56-7.91L196.56-7.91Q196.61-7.71 196.76-7.54 196.9-7.37 197-7.13L197-7.13Q197.29-6.64 197.47-6.37 197.64-6.1 197.49-5.76L197.49-5.76Q197.49-4.74 197-4.27 196.51-3.81 196.02-3.27L196.02-3.27Q195.59-2.93 195.22-2.73 194.85-2.54 194.56-2.2L194.56-2.2Q193.93-1.71 193.61-1.61 193.29-1.51 193-1.61L193-1.61Q192.51-1.86 192.51-1.86L192.51-1.86Q192.46-1.86 192.29-2.03 192.12-2.2 192.07-2.29L192.07-2.29Q191.58-2.83 191.46-3.17 191.34-3.52 191.09-3.66L191.09-3.66Q191-4.35 190.97-4.66 190.95-4.98 190.9-5.27L190.9-5.27Q190.95-5.71 190.95-6.05 190.95-6.4 191.19-6.59L191.19-6.59Q191.19-6.84 191.24-7.1 191.29-7.37 191.44-7.52L191.44-7.52Q191.48-8.01 191.63-8.37 191.78-8.74 191.87-9.03L191.87-9.03Q192.07-9.08 192.05-9.28 192.02-9.47 192.27-9.52L192.27-9.52Q192.27-9.67 192.34-9.84 192.41-10.01 192.41-10.25L192.41-10.25Q192.36-10.94 192.41-11.18 192.46-11.43 192.46-11.72L192.46-11.72Q192.51-12.26 192.48-12.4 192.46-12.55 192.46-12.65L192.46-12.65Q192.51-12.79 192.56-12.94 192.61-13.09 192.61-13.23L192.61-13.23Q192.66-13.38 192.63-13.53 192.61-13.67 192.7-13.77L192.7-13.77Q192.56-14.6 192.41-15.31 192.27-16.02 192.46-16.7L192.46-16.7Q192.31-17.14 192.36-17.53L192.36-17.53Q192.41-17.77 192.48-17.92 192.56-18.07 192.56-18.21L192.56-18.21Q192.41-18.99 192.48-19.46 192.56-19.92 192.66-20.21L192.66-20.21Q192.66-20.41 192.61-20.56 192.56-20.7 192.66-20.8L192.66-20.8Q192.7-21.44 192.53-22.02 192.36-22.61 192.46-22.9L192.46-22.9Q192.22-23.44 192.19-23.68 192.17-23.93 192.12-24.17L192.12-24.17Q191.87-24.27 191.85-24.51 191.83-24.76 191.73-24.9L191.73-24.9Q191.83-25.1 191.73-25.27 191.63-25.44 191.73-25.59L191.73-25.59Q191.39-26.42 191.48-26.86 191.58-27.29 191.78-27.69L191.78-27.69Q191.87-27.78 192-27.98 192.12-28.17 192.31-28.08L192.31-28.08Q192.56-28.42 192.78-28.59 193-28.76 193.34-28.76L193.34-28.76Q193.53-28.96 193.8-28.93 194.07-28.91 194.32-29L194.32-29Q194.8-28.96 195.05-28.78 195.29-28.61 195.46-28.39 195.63-28.17 195.81-27.95 195.98-27.73 196.22-27.59L196.22-27.59Q196.37-27.25 196.64-26.93 196.9-26.61 196.76-26.12L196.76-26.12Q197.05-24.95 196.76-23.68L196.76-23.68Z" opacity="1" transform="matrix(1,0,0,1,0,0)" fill="#000000" class="wordmark-text-0" data-fill-palette-color="primary" id="text-0"></path></svg></g></svg></g><g transform="matrix(1,0,0,1,0,87.8084198845682)"><svg viewBox="0 0 232.209792 32.95647755725191" height="32.95647755725191" width="232.209792"><g transform="matrix(1,0,0,1,0,0)"><svg width="232.209792" viewBox="3.44 -46.36 329.38 46.75" height="32.95647755725191" data-palette-color="#b7feae"><path d="M3.44 0L3.44-41.7 19.38-41.7 19.38-36.72 9.77-36.72 9.77-24.24 17.31-24.24 17.31-19.26 9.77-19.26 9.77-4.98 19.38-4.98 19.38 0 3.44 0ZM22.34-11.74L22.34-11.74 22.34-22.41Q22.34-25.81 22.9-27.98 23.46-30.15 24.35-31.38 25.24-32.62 26.25-33.17 27.27-33.72 28.2-33.85 29.12-33.98 29.71-33.98L29.71-33.98Q31.54-33.98 32.88-33.09 34.23-32.2 34.91-31.18L34.91-31.18 34.93-31.2 34.74-35.45 34.74-44.41 40.89-44.41 40.89 0 36.08 0 35.54-3.13Q34.74-1.78 33.32-0.7 31.91 0.39 29.56 0.39L29.56 0.39Q28.71 0.39 27.5 0.07 26.29-0.24 25.11-1.4 23.92-2.56 23.13-5.02 22.34-7.47 22.34-11.74ZM34.74-7.06L34.74-7.06 34.74-26.51Q34.27-27.51 33.51-28.25 32.74-28.98 31.64-28.98L31.64-28.98Q30.73-28.98 30.04-28.5 29.34-28.03 28.94-26.72 28.54-25.42 28.54-22.9L28.54-22.9 28.54-10.77Q28.54-8.28 28.94-6.95 29.34-5.62 30.05-5.13 30.76-4.64 31.66-4.64L31.66-4.64Q32.88-4.64 33.62-5.38 34.35-6.13 34.74-7.06ZM47.16-7.86L47.16-33.62 53.34-33.62 53.34-8.89Q53.34-6.67 54.02-5.8 54.71-4.93 56.03-4.93L56.03-4.93Q57.98-4.93 59.42-6.91L59.42-6.91 59.42-33.62 65.6-33.62 65.6 0 60.88 0 60.27-3.59 60.25-3.59Q58.81-1.29 56.99-0.45 55.17 0.39 53.32 0.39L53.32 0.39Q50.39 0.39 48.77-1.67 47.16-3.74 47.16-7.86L47.16-7.86ZM71.06-13.77L71.06-13.77 71.06-20.12Q71.06-23.97 71.71-26.51 72.36-29.05 73.41-30.57 74.46-32.08 75.72-32.81 76.99-33.54 78.24-33.78 79.48-34.01 80.51-34.01L80.51-34.01Q83.93-34.01 86.05-32.2 88.18-30.4 88.18-26.61L88.18-26.61Q88.18-25.46 88.07-24.61 87.96-23.75 87.76-22.97L87.76-22.97 83.07-22.97 83.07-24.02Q83.07-26.56 82.38-27.99 81.68-29.42 80.31-29.42L80.31-29.42Q78.83-29.42 78.04-27.77 77.26-26.12 77.26-21.78L77.26-21.78 77.26-12.23Q77.26-7.84 77.96-6.03 78.65-4.22 80.46-4.22L80.46-4.22Q81.39-4.22 82.23-5.21 83.07-6.2 83.07-8.86L83.07-8.86 83.07-10.33 88.08-10.33 88.08-8.79Q88.08-4 86.03-1.82 83.98 0.37 79.78 0.37L79.78 0.37Q75.53 0.37 73.3-2.95 71.06-6.27 71.06-13.77ZM98.89-18.68L98.89-18.68Q99.82-19.14 100.89-19.63 101.97-20.12 102.87-20.43L102.87-20.43 102.87-24.51Q102.87-25.78 102.76-26.88 102.65-27.98 102.1-28.67 101.55-29.37 100.23-29.37L100.23-29.37Q98.92-29.37 97.87-28.3 96.82-27.22 96.82-24.32L96.82-24.32 96.82-22.97 92.1-22.97Q91.66-24.88 91.66-26.29L91.66-26.29Q91.66-30.05 94.13-32.02 96.6-33.98 100.43-33.98L100.43-33.98Q103.77-33.98 105.65-33.04 107.53-32.1 108.29-30.21 109.05-28.32 109.05-25.42L109.05-25.42 109.05 0 104.29 0 103.85-2.88Q102.87-1.46 101.26-0.54 99.65 0.39 97.52 0.39L97.52 0.39Q95.33 0.39 93.91-0.73 92.49-1.86 91.8-3.7 91.1-5.54 91.1-7.71L91.1-7.71Q91.1-11.87 93.08-14.32 95.06-16.77 98.89-18.68ZM100.26-4.32L100.26-4.32Q101.04-4.32 101.7-4.72 102.36-5.13 102.87-5.71L102.87-5.71 102.87-16.31Q102.41-16.11 101.87-15.84 101.33-15.58 100.62-15.14L100.62-15.14Q99.33-14.33 98.21-12.73 97.08-11.13 97.08-8.67L97.08-8.67Q97.08-6.74 97.84-5.53 98.6-4.32 100.26-4.32ZM115.76-8.37L115.76-28.93 112.9-28.93 112.9-33.62 116.3-33.62 117.54-42.33 121.94-42.33 121.94-33.62 127.55-33.62 127.55-28.93 121.94-28.93 121.94-8.33Q121.94-6.13 122.73-5.54 123.52-4.96 124.6-4.96L124.6-4.96Q126.31-4.96 127.53-5.71L127.53-5.71 127.53-1.81Q126.48-0.51 125.09-0.06 123.69 0.39 122.4 0.39L122.4 0.39Q120.69 0.39 119.16-0.28 117.64-0.95 116.7-2.84 115.76-4.74 115.76-8.37L115.76-8.37ZM134.46-38.28L134.46-38.28Q132.75-38.28 131.71-39.36 130.67-40.43 130.67-42.38L130.67-42.38Q130.67-44.56 131.71-45.46 132.75-46.36 134.48-46.36L134.48-46.36Q136.29-46.36 137.3-45.39 138.32-44.41 138.32-42.38L138.32-42.38Q138.32-40.48 137.29-39.38 136.26-38.28 134.46-38.28ZM131.41 0L131.41-33.62 137.58-33.62 137.58 0 131.41 0ZM152.35 0.37L152.35 0.37Q150.74 0.37 149.1-0.11 147.47-0.59 146.09-2.05 144.71-3.52 143.88-6.48 143.05-9.45 143.05-14.43L143.05-14.43 143.05-19.7Q143.05-24.61 143.9-27.48 144.76-30.35 146.15-31.75 147.54-33.15 149.18-33.58 150.81-34.01 152.38-34.01L152.38-34.01Q153.89-34.01 155.5-33.61 157.11-33.2 158.48-31.82 159.85-30.44 160.7-27.55 161.55-24.66 161.55-19.7L161.55-19.7 161.55-14.43Q161.55-9.52 160.68-6.58 159.8-3.64 158.41-2.14 157.01-0.63 155.41-0.13 153.82 0.37 152.35 0.37ZM152.4-4.22L152.4-4.22Q154.06-4.22 154.71-6.05 155.35-7.89 155.35-12.6L155.35-12.6 155.35-20.97Q155.35-25.71 154.71-27.56 154.06-29.42 152.4-29.42L152.4-29.42Q150.67-29.42 149.96-27.56 149.25-25.71 149.25-20.97L149.25-20.97 149.25-12.6Q149.25-7.89 149.96-6.05 150.67-4.22 152.4-4.22ZM167.02 0L167.02-33.62 171.73-33.62 172.34-30.03 172.34-30Q173.78-32.32 175.61-33.17 177.45-34.01 179.3-34.01L179.3-34.01Q182.23-34.01 183.84-31.93 185.45-29.86 185.45-25.76L185.45-25.76 185.45 0 179.28 0 179.28-25.02Q179.28-27.25 178.59-28.11 177.91-28.98 176.59-28.98L176.59-28.98Q175.66-28.98 174.78-28.37 173.91-27.76 173.2-26.68L173.2-26.68 173.2 0 167.02 0ZM200.93-7.03L200.93-7.03Q200.93-8.13 201.13-9.16 201.34-10.18 201.54-10.79L201.54-10.79 205.88-10.79Q205.88-7.13 206.8-5.68 207.71-4.22 209.42-4.22L209.42-4.22Q210.64-4.22 211.33-4.97 212.01-5.71 212.01-6.74L212.01-6.74Q212.01-7.81 211.44-8.81 210.86-9.81 209.86-11.01L209.86-11.01 205.54-16.33Q203.78-18.55 202.4-20.98 201.02-23.41 201.02-26.34L201.02-26.34Q201.02-28.96 202.17-30.65 203.32-32.35 205.2-33.18 207.08-34.01 209.28-34.01L209.28-34.01Q212.91-34.01 215.09-32.26 217.26-30.52 217.26-27.03L217.26-27.03Q217.26-25.88 217.05-24.77 216.85-23.66 216.65-22.88L216.65-22.88 212.38-22.88Q212.33-26.2 211.6-27.81 210.86-29.42 209.18-29.42L209.18-29.42Q207.76-29.42 207.23-28.54 206.69-27.66 206.69-26.59L206.69-26.59Q206.69-25.42 207.27-24.48 207.86-23.54 208.79-22.36L208.79-22.36 213.67-16.46Q214.38-15.58 215.31-14.22 216.23-12.87 216.93-11.17 217.63-9.47 217.63-7.5L217.63-7.5Q217.63-3.96 215.4-1.79 213.18 0.37 209.06 0.37L209.06 0.37Q206.81 0.37 204.96-0.33 203.1-1.03 202.01-2.65 200.93-4.27 200.93-7.03ZM222.75-8.37L222.75-28.93 219.89-28.93 219.89-33.62 223.29-33.62 224.53-42.33 228.93-42.33 228.93-33.62 234.54-33.62 234.54-28.93 228.93-28.93 228.93-8.33Q228.93-6.13 229.72-5.54 230.51-4.96 231.59-4.96L231.59-4.96Q233.3-4.96 234.52-5.71L234.52-5.71 234.52-1.81Q233.47-0.51 232.08-0.06 230.69 0.39 229.39 0.39L229.39 0.39Q227.68 0.39 226.16-0.28 224.63-0.95 223.69-2.84 222.75-4.74 222.75-8.37L222.75-8.37ZM238.4 0L238.4-33.62 242.91-33.62 243.45-30.2Q244.45-32.1 245.8-33.06 247.14-34.01 248.53-34.01L248.53-34.01Q253.73-34.01 253.73-27.47L253.73-27.47Q253.73-26.64 253.49-25.28 253.24-23.93 252.9-22.9L252.9-22.9 248.6-22.9 248.6-25.51Q248.6-27.54 247.99-28.26 247.38-28.98 246.48-28.98L246.48-28.98Q245.33-28.98 244.57-27.17L244.57-27.17 244.57 0 238.4 0ZM256.66-13.77L256.66-13.77 256.66-20.12Q256.66-23.97 257.32-26.51 257.98-29.05 259.06-30.57 260.15-32.08 261.45-32.81 262.76-33.54 264.05-33.78 265.35-34.01 266.42-34.01L266.42-34.01Q268.64-34.01 270.52-33.07 272.4-32.13 273.54-29.85 274.67-27.56 274.67-23.51L274.67-23.51Q274.67-21.48 274.45-19.37 274.24-17.26 273.87-15.65L273.87-15.65 262.86-15.65 262.86-12.23Q262.86-7.84 263.6-6.03 264.35-4.22 266.45-4.22L266.45-4.22Q267.59-4.22 268.52-5.21 269.45-6.2 269.45-8.86L269.45-8.86 269.45-10.33 274.53-10.33 274.53-8.79Q274.53-4 272.25-1.82 269.96 0.37 265.64 0.37L265.64 0.37Q261.3 0.37 258.98-2.95 256.66-6.27 256.66-13.77ZM262.86-19.8L268.91-19.8Q268.96-20.34 268.99-21.42 269.01-22.51 269.01-23.17L269.01-23.17Q269.01-26.51 268.3-27.95 267.59-29.39 266.06-29.42L266.06-29.42Q264.42-29.42 263.64-27.77 262.86-26.12 262.86-21.78L262.86-21.78 262.86-19.8ZM285.73-18.68L285.73-18.68Q286.66-19.14 287.73-19.63 288.81-20.12 289.71-20.43L289.71-20.43 289.71-24.51Q289.71-25.78 289.6-26.88 289.49-27.98 288.94-28.67 288.39-29.37 287.07-29.37L287.07-29.37Q285.76-29.37 284.71-28.3 283.66-27.22 283.66-24.32L283.66-24.32 283.66-22.97 278.94-22.97Q278.51-24.88 278.51-26.29L278.51-26.29Q278.51-30.05 280.97-32.02 283.44-33.98 287.27-33.98L287.27-33.98Q290.61-33.98 292.49-33.04 294.37-32.1 295.13-30.21 295.89-28.32 295.89-25.42L295.89-25.42 295.89 0 291.13 0 290.69-2.88Q289.71-1.46 288.1-0.54 286.49 0.39 284.36 0.39L284.36 0.39Q282.17 0.39 280.75-0.73 279.34-1.86 278.64-3.7 277.94-5.54 277.94-7.71L277.94-7.71Q277.94-11.87 279.92-14.32 281.9-16.77 285.73-18.68ZM287.1-4.32L287.1-4.32Q287.88-4.32 288.54-4.72 289.2-5.13 289.71-5.71L289.71-5.71 289.71-16.31Q289.25-16.11 288.71-15.84 288.17-15.58 287.47-15.14L287.47-15.14Q286.17-14.33 285.05-12.73 283.92-11.13 283.92-8.67L283.92-8.67Q283.92-6.74 284.68-5.53 285.44-4.32 287.1-4.32ZM302.11 0L302.11-33.62 306.85-33.62 307.43-30.03 307.43-30Q308.87-32.32 310.72-33.17 312.56-34.01 314.42-34.01L314.42-34.01Q318.44-34.01 319.84-30.2L319.84-30.2Q321.28-32.37 323.07-33.19 324.86-34.01 326.7-34.01L326.7-34.01Q329.6-34.01 331.21-31.93 332.82-29.86 332.82-25.76L332.82-25.76 332.82 0 326.65 0 326.65-25.02Q326.65-27.25 325.98-28.11 325.3-28.98 323.79-28.98L323.79-28.98Q322.96-28.98 322.09-28.34 321.23-27.71 320.52-26.64L320.52-26.64Q320.54-26.42 320.54-26.2 320.54-25.98 320.54-25.76L320.54-25.76 320.54 0 314.37 0 314.37-25.02Q314.37-27.25 313.7-28.11 313.02-28.98 311.51-28.98L311.51-28.98Q310.68-28.98 309.83-28.37 308.97-27.76 308.29-26.68L308.29-26.68 308.29 0 302.11 0Z" opacity="1" transform="matrix(1,0,0,1,0,0)" fill="#000000" class="slogan-text-1" data-fill-palette-color="secondary" id="text-1"></path></svg></g></svg></g></svg></g></svg></g><g transform="matrix(1,0,0,1,0,0.3019122436045407)"><svg viewBox="0 0 122.24365128804645 120.7648974418201" height="120.7648974418201" width="122.24365128804645"><g><svg xmlns:x="http://ns.adobe.com/Extensibility/1.0/" xmlns:i="http://ns.adobe.com/AdobeIllustrator/10.0/" xmlns:graph="http://ns.adobe.com/Graphs/1.0/" xmlns="http://www.w3.org/2000/svg" xmlns:xlink="http://www.w3.org/1999/xlink" version="1.1" x="0" y="0" viewBox="0.4 1 99.19999999999999 98" enable-background="new 0 0 100 100" xml:space="preserve" height="120.7648974418201" width="122.24365128804645" class="icon-icon-0" data-fill-palette-color="accent" id="icon-0"><path d="M41.2 82.2C42.6 82.2 43.7 83.3 43.7 84.7V85.1H56.4V84.7C56.4 83.3 57.5 82.2 58.9 82.2H82C83.4 82.2 84.5 83.3 84.5 84.7S83.4 87.2 82 87.2H61C60.2 88.9 58.5 90.1 56.4 90.1H43.7C41.7 90.1 39.9 88.9 39.1 87.2H18.1C16.7 87.2 15.6 86.1 15.6 84.7S16.7 82.2 18.1 82.2zM10 99H90C95.3 99 99.6 94.7 99.6 89.4V84.7C99.6 83.3 98.5 82.2 97.1 82.2H92.4V36.9C92 33.3 89.2 30.6 85.7 30.6H70.2C68.8 30.6 67.7 31.7 67.7 33.1S68.8 35.6 70.2 35.6H85.6C86.5 35.6 87.2 36.3 87.3 37.3V84.8C87.3 86.2 88.4 87.3 89.8 87.3H94.5V89.5C94.5 92 92.4 94.1 89.9 94.1H10C7.5 94.1 5.4 92 5.4 89.5V87.3H10.1C11.5 87.3 12.6 86.2 12.6 84.8V37.1C12.6 36.3 13.3 35.6 14.1 35.6H30.8C32.2 35.6 33.3 34.5 33.3 33.1S32.2 30.6 30.8 30.6H14.1C10.5 30.6 7.6 33.5 7.6 37.1V82.2H2.9C1.5 82.2 0.4 83.3 0.4 84.7V89.4C0.4 94.7 4.7 99 10 99M66.7 21.6C61.8 18.1 56 16.3 50 16.3S38.2 18.1 33.3 21.6C32.2 22.4 31.9 24 32.7 25.1S35.1 26.5 36.2 25.7C40.2 22.8 45 21.3 50 21.3S59.8 22.8 63.8 25.7C64.2 26 64.7 26.2 65.2 26.2 66 26.2 66.8 25.8 67.2 25.1 68.1 23.9 67.8 22.4 66.7 21.6M45.5 37.9C48.1 36 51.9 36 54.6 37.9 55 38.2 55.5 38.4 56 38.4 56.8 38.4 57.6 38 58 37.3 58.8 36.2 58.5 34.6 57.4 33.8 55.2 32.3 52.7 31.4 50 31.4S44.8 32.2 42.6 33.8C41.5 34.6 41.2 36.2 42 37.3S44.3 38.7 45.5 37.9M24 14.3C24.5 14.3 25 14.2 25.4 13.8 32.6 8.7 41.1 6 50 6S67.4 8.7 74.6 13.8C75.7 14.6 77.3 14.3 78.1 13.2S78.6 10.5 77.5 9.7C69.4 4 59.9 1 50 1S30.6 4 22.5 9.7C21.4 10.5 21.1 12.1 21.9 13.2 22.4 13.9 23.2 14.3 24 14.3" fill="#000000" data-fill-palette-color="accent"></path></svg><g></g></g></svg></g></svg></g><defs></defs></svg><rect width="395.52" height="86.0728650466628" fill="none" stroke="none" visibility="hidden"></rect></g></svg></g></svg>